<?xml version="1.0" encoding="utf-8"?>
<!-- Generated by Mocodo 4.2.10 -->
<svg width="951" height="422" viewBox="0 0 951 422" xmlns="http://www.w3.org/2000/svg">
<rect x="0" y="0" width="951" height="422" fill="#ffffbf" stroke="none" stroke-width="0"/>

<!-- Association APPARTIENT -->
<g>
	<line x1="405" y1="51" x2="225" y2="51" stroke="#66bd63" stroke-width="2"/>
	<line x1="69" y1="51" x2="225" y2="51" stroke="#66bd63" stroke-width="2"/>
	<g>
		<path d="M257 26 a14 14 90 0 1 14 14 V51 h-92 V40 a14 14 90 0 1 14 -14" fill="#a6d96a" stroke="#a6d96a" stroke-width="0"/>
		<path d="M271 51 v11 a14 14 90 0 1 -14 14 H193 a14 14 90 0 1 -14 -14 V51 H92" fill="#d9ef8b" stroke="#d9ef8b" stroke-width="0"/>
		<rect x="179" y="26" width="92" height="50" fill="none" rx="14" stroke="#66bd63" stroke-width="2"/>
		<line x1="179" y1="51" x2="271" y2="51" stroke="#66bd63" stroke-width="1"/>
		<text x="187" y="43.75" fill="#000000" font-family="Verdana" font-size="12">APPARTIENT</text>
	</g>
	<text x="333" y="43" fill="#d73027" font-family="Verdana" font-size="12">1,1</text>
	<text x="118" y="68" fill="#d73027" font-family="Verdana" font-size="12">1,N</text>
</g>

<!-- Association EST_DANS_SALLE -->
<g>
	<line x1="586" y1="51" x2="775" y2="51" stroke="#66bd63" stroke-width="2"/>
	<line x1="906" y1="51" x2="775" y2="51" stroke="#66bd63" stroke-width="2"/>
	<g>
		<path d="M824 26 a14 14 90 0 1 14 14 V51 h-126 V40 a14 14 90 0 1 14 -14" fill="#a6d96a" stroke="#a6d96a" stroke-width="0"/>
		<path d="M838 51 v11 a14 14 90 0 1 -14 14 H726 a14 14 90 0 1 -14 -14 V51 H126" fill="#d9ef8b" stroke="#d9ef8b" stroke-width="0"/>
		<rect x="712" y="26" width="126" height="50" fill="none" rx="14" stroke="#66bd63" stroke-width="2"/>
		<line x1="712" y1="51" x2="838" y2="51" stroke="#66bd63" stroke-width="1"/>
		<text x="719" y="43.75" fill="#000000" font-family="Verdana" font-size="12">EST_DANS_SALLE</text>
	</g>
	<text x="639" y="43" fill="#d73027" font-family="Verdana" font-size="12">1,1</text>
	<text x="843" y="68" fill="#d73027" font-family="Verdana" font-size="12">0,N</text>
</g>

<!-- Association EST_DANS_ENTP -->
<g>
	<line x1="69" y1="244" x2="69" y2="143" stroke="#66bd63" stroke-width="2"/>
	<line x1="69" y1="51" x2="69" y2="143" stroke="#66bd63" stroke-width="2"/>
	<g>
		<path d="M115 118 a14 14 90 0 1 14 14 V143 h-120 V132 a14 14 90 0 1 14 -14" fill="#a6d96a" stroke="#a6d96a" stroke-width="0"/>
		<path d="M129 143 v11 a14 14 90 0 1 -14 14 H23 a14 14 90 0 1 -14 -14 V143 H120" fill="#d9ef8b" stroke="#d9ef8b" stroke-width="0"/>
		<rect x="9" y="118" width="120" height="50" fill="none" rx="14" stroke="#66bd63" stroke-width="2"/>
		<line x1="9" y1="143" x2="129" y2="143" stroke="#66bd63" stroke-width="1"/>
		<text x="17" y="135.75" fill="#000000" font-family="Verdana" font-size="12">EST_DANS_ENTP</text>
	</g>
	<text x="43" y="185" fill="#d73027" font-family="Verdana" font-size="12">1,1</text>
	<text x="74" y="110" fill="#d73027" font-family="Verdana" font-size="12">1,N</text>
</g>

<!-- Association EST_TUTEUR_PRO -->
<g>
	<line x1="69" y1="244" x2="225" y2="143" stroke="#66bd63" stroke-width="2"/>
	<line x1="405" y1="51" x2="225" y2="143" stroke="#66bd63" stroke-width="2"/>
	<g>
		<path d="M275 118 a14 14 90 0 1 14 14 V143 h-128 V132 a14 14 90 0 1 14 -14" fill="#a6d96a" stroke="#a6d96a" stroke-width="0"/>
		<path d="M289 143 v11 a14 14 90 0 1 -14 14 H175 a14 14 90 0 1 -14 -14 V143 H128" fill="#d9ef8b" stroke="#d9ef8b" stroke-width="0"/>
		<rect x="161" y="118" width="128" height="50" fill="none" rx="14" stroke="#66bd63" stroke-width="2"/>
		<line x1="161" y1="143" x2="289" y2="143" stroke="#66bd63" stroke-width="1"/>
		<text x="169" y="135.75" fill="#000000" font-family="Verdana" font-size="12">EST_TUTEUR_PRO</text>
	</g>
	<text x="123" y="224.3" fill="#d73027" font-family="Verdana" font-size="12">1,1</text>
	<text x="332" y="70.5" fill="#d73027" font-family="Verdana" font-size="12">1,N</text>
</g>

<!-- Association TUTEUR_PRO_PARTICIPE -->
<g>
	<line x1="405" y1="51" x2="405" y2="143" stroke="#66bd63" stroke-width="2"/>
	<line x1="586" y1="51" x2="405" y2="143" stroke="#66bd63" stroke-width="2"/>
	<g>
		<path d="M475 118 a14 14 90 0 1 14 14 V143 h-168 V132 a14 14 90 0 1 14 -14" fill="#a6d96a" stroke="#a6d96a" stroke-width="0"/>
		<path d="M489 143 v11 a14 14 90 0 1 -14 14 H335 a14 14 90 0 1 -14 -14 V143 H168" fill="#d9ef8b" stroke="#d9ef8b" stroke-width="0"/>
		<rect x="321" y="118" width="168" height="50" fill="none" rx="14" stroke="#66bd63" stroke-width="2"/>
		<line x1="321" y1="143" x2="489" y2="143" stroke="#66bd63" stroke-width="1"/>
		<text x="328" y="135.75" fill="#000000" font-family="Verdana" font-size="12">TUTEUR_PRO_PARTICIPE</text>
	</g>
	<text x="410" y="102" fill="#d73027" font-family="Verdana" font-size="12">0,N</text>
	<text x="512" y="71.37" fill="#d73027" font-family="Verdana" font-size="12">1,1</text>
</g>

<!-- Association EST_SOUTENANCE -->
<g>
	<line x1="405" y1="244" x2="586" y2="143" stroke="#66bd63" stroke-width="2"/>
	<line x1="586" y1="51" x2="586" y2="143" stroke="#66bd63" stroke-width="2"/>
	<g>
		<path d="M637 118 a14 14 90 0 1 14 14 V143 h-130 V132 a14 14 90 0 1 14 -14" fill="#a6d96a" stroke="#a6d96a" stroke-width="0"/>
		<path d="M651 143 v11 a14 14 90 0 1 -14 14 H535 a14 14 90 0 1 -14 -14 V143 H130" fill="#d9ef8b" stroke="#d9ef8b" stroke-width="0"/>
		<rect x="521" y="118" width="130" height="50" fill="none" rx="14" stroke="#66bd63" stroke-width="2"/>
		<line x1="521" y1="143" x2="651" y2="143" stroke="#66bd63" stroke-width="1"/>
		<text x="529" y="135.75" fill="#000000" font-family="Verdana" font-size="12">EST_SOUTENANCE</text>
	</g>
	<text x="480" y="217.6" fill="#d73027" font-family="Verdana" font-size="12">0,N</text>
	<text x="591" y="110" fill="#d73027" font-family="Verdana" font-size="12">1,1</text>
</g>

<!-- Association PROF_CANDIDE_PARTICIPE -->
<g>
	<line x1="775" y1="244" x2="775" y2="143" stroke="#66bd63" stroke-width="2"/>
	<line x1="586" y1="51" x2="775" y2="143" stroke="#66bd63" stroke-width="2"/>
	<g>
		<path d="M853 118 a14 14 90 0 1 14 14 V143 h-184 V132 a14 14 90 0 1 14 -14" fill="#a6d96a" stroke="#a6d96a" stroke-width="0"/>
		<path d="M867 143 v11 a14 14 90 0 1 -14 14 H697 a14 14 90 0 1 -14 -14 V143 H184" fill="#d9ef8b" stroke="#d9ef8b" stroke-width="0"/>
		<rect x="683" y="118" width="184" height="50" fill="none" rx="14" stroke="#66bd63" stroke-width="2"/>
		<line x1="683" y1="143" x2="867" y2="143" stroke="#66bd63" stroke-width="1"/>
		<text x="691" y="135.75" fill="#000000" font-family="Verdana" font-size="12">PROF_CANDIDE_PARTICIPE</text>
	</g>
	<text x="780" y="194" fill="#d73027" font-family="Verdana" font-size="12">0,N</text>
	<text x="639" y="70.17" fill="#d73027" font-family="Verdana" font-size="12">1,1</text>
</g>

<!-- Association FAIT -->
<g>
	<line x1="69" y1="244" x2="225" y2="244" stroke="#66bd63" stroke-width="2"/>
	<line x1="405" y1="244" x2="225" y2="244" stroke="#66bd63" stroke-width="2"/>
	<g>
		<path d="M233 219 a14 14 90 0 1 14 14 V244 h-44 V233 a14 14 90 0 1 14 -14" fill="#a6d96a" stroke="#a6d96a" stroke-width="0"/>
		<path d="M247 244 v11 a14 14 90 0 1 -14 14 H217 a14 14 90 0 1 -14 -14 V244 H44" fill="#d9ef8b" stroke="#d9ef8b" stroke-width="0"/>
		<rect x="203" y="219" width="44" height="50" fill="none" rx="14" stroke="#66bd63" stroke-width="2"/>
		<line x1="203" y1="244" x2="247" y2="244" stroke="#66bd63" stroke-width="1"/>
		<text x="211" y="236.75" fill="#000000" font-family="Verdana" font-size="12">FAIT</text>
	</g>
	<text x="123" y="261" fill="#d73027" font-family="Verdana" font-size="12">0,N</text>
	<text x="309" y="261" fill="#d73027" font-family="Verdana" font-size="12">1,1</text>
</g>

<!-- Association SUIT -->
<g>
	<line x1="775" y1="244" x2="586" y2="244" stroke="#66bd63" stroke-width="2"/>
	<line x1="405" y1="244" x2="586" y2="244" stroke="#66bd63" stroke-width="2"/>
	<g>
		<path d="M594 219 a14 14 90 0 1 14 14 V244 h-44 V233 a14 14 90 0 1 14 -14" fill="#a6d96a" stroke="#a6d96a" stroke-width="0"/>
		<path d="M608 244 v11 a14 14 90 0 1 -14 14 H578 a14 14 90 0 1 -14 -14 V244 H44" fill="#d9ef8b" stroke="#d9ef8b" stroke-width="0"/>
		<rect x="564" y="219" width="44" height="50" fill="none" rx="14" stroke="#66bd63" stroke-width="2"/>
		<line x1="564" y1="244" x2="608" y2="244" stroke="#66bd63" stroke-width="1"/>
		<text x="571" y="236.75" fill="#000000" font-family="Verdana" font-size="12">SUIT</text>
	</g>
	<text x="702" y="236" fill="#d73027" font-family="Verdana" font-size="12">0,N</text>
	<text x="480" y="261" fill="#d73027" font-family="Verdana" font-size="12">1,1</text>
</g>

<!-- Association EST_DANS_PROMO -->
<g>
	<line x1="69" y1="244" x2="225" y2="362" stroke="#66bd63" stroke-width="2"/>
	<line x1="405" y1="362" x2="225" y2="362" stroke="#66bd63" stroke-width="2"/>
	<line x1="69" y1="362" x2="225" y2="362" stroke="#66bd63" stroke-width="2"/>
	<g>
		<path d="M278 337 a14 14 90 0 1 14 14 V362 h-134 V351 a14 14 90 0 1 14 -14" fill="#a6d96a" stroke="#a6d96a" stroke-width="0"/>
		<path d="M292 362 v11 a14 14 90 0 1 -14 14 H172 a14 14 90 0 1 -14 -14 V362 H134" fill="#d9ef8b" stroke="#d9ef8b" stroke-width="0"/>
		<rect x="158" y="337" width="134" height="50" fill="none" rx="14" stroke="#66bd63" stroke-width="2"/>
		<line x1="158" y1="362" x2="292" y2="362" stroke="#66bd63" stroke-width="1"/>
		<text x="166" y="354.75" fill="#000000" font-family="Verdana" font-size="12">EST_DANS_PROMO</text>
	</g>
	<text x="123" y="278.76" fill="#d73027" font-family="Verdana" font-size="12">1,1</text>
	<text x="334" y="379" fill="#d73027" font-family="Verdana" font-size="12">0,N</text>
	<text x="107" y="379" fill="#d73027" font-family="Verdana" font-size="12">0,N</text>
</g>

<!-- Association EST_RESPONSABLE -->
<g>
	<line x1="405" y1="362" x2="586" y2="362" stroke="#66bd63" stroke-width="2"/>
	<line x1="775" y1="244" x2="586" y2="362" stroke="#66bd63" stroke-width="2"/>
	<g>
		<path d="M640 337 a14 14 90 0 1 14 14 V362 h-136 V351 a14 14 90 0 1 14 -14" fill="#a6d96a" stroke="#a6d96a" stroke-width="0"/>
		<path d="M654 362 v11 a14 14 90 0 1 -14 14 H532 a14 14 90 0 1 -14 -14 V362 H136" fill="#d9ef8b" stroke="#d9ef8b" stroke-width="0"/>
		<rect x="518" y="337" width="136" height="50" fill="none" rx="14" stroke="#66bd63" stroke-width="2"/>
		<line x1="518" y1="362" x2="654" y2="362" stroke="#66bd63" stroke-width="1"/>
		<text x="526" y="354.75" fill="#000000" font-family="Verdana" font-size="12">EST_RESPONSABLE</text>
	</g>
	<text x="454" y="379" fill="#d73027" font-family="Verdana" font-size="12">1,1</text>
	<text x="703" y="269.54" fill="#d73027" font-family="Verdana" font-size="12">1,1</text>
</g>

<!-- Entity ENTREPRISE -->
<g>
	<g>
		<rect x="25" y="9" width="88" height="25" fill="#fdae61" stroke="none" stroke-width="0" opacity="1"/>
		<rect x="25" y="34" width="88" height="59" fill="#fee08b" stroke="none" stroke-width="0" opacity="1"/>
		<rect x="25" y="9" width="88" height="84" fill="none" stroke="#f46d43" stroke-width="2" opacity="1"/>
		<line x1="25" y1="34" x2="113" y2="34" stroke="#f46d43" stroke-width="1"/>
	</g>
	<text x="31" y="26.75" fill="#000000" font-family="Verdana" font-size="12">ENTREPRISE</text>
	<text x="30" y="51.8" fill="#000000" font-family="Verdana" font-size="12">id_entp</text>
	<line x1="30" y1="54" x2="76" y2="54" stroke="#000000" stroke-width="1"/>
	<text x="30" y="68.8" fill="#000000" font-family="Verdana" font-size="12">nom_entp</text>
	<text x="30" y="85.8" fill="#000000" font-family="Verdana" font-size="12">mail</text>
</g>

<!-- Entity TUTEUR_PRO -->
<g>
	<g>
		<rect x="359" y="17" width="92" height="25" fill="#fdae61" stroke="none" stroke-width="0" opacity="1"/>
		<rect x="359" y="42" width="92" height="43" fill="#fee08b" stroke="none" stroke-width="0" opacity="1"/>
		<rect x="359" y="17" width="92" height="68" fill="none" stroke="#f46d43" stroke-width="2" opacity="1"/>
		<line x1="359" y1="42" x2="451" y2="42" stroke="#f46d43" stroke-width="1"/>
	</g>
	<text x="364" y="34.75" fill="#000000" font-family="Verdana" font-size="12">TUTEUR_PRO</text>
	<text x="364" y="59.8" fill="#000000" font-family="Verdana" font-size="12">id_tpro</text>
	<line x1="364" y1="62" x2="408" y2="62" stroke="#000000" stroke-width="1"/>
	<text x="364" y="76.8" fill="#000000" font-family="Verdana" font-size="12">nom_tpro</text>
</g>

<!-- Entity SOUTENANCE -->
<g>
	<g>
		<rect x="538" y="9" width="96" height="25" fill="#fdae61" stroke="none" stroke-width="0" opacity="1"/>
		<rect x="538" y="34" width="96" height="59" fill="#fee08b" stroke="none" stroke-width="0" opacity="1"/>
		<rect x="538" y="9" width="96" height="84" fill="none" stroke="#f46d43" stroke-width="2" opacity="1"/>
		<line x1="538" y1="34" x2="634" y2="34" stroke="#f46d43" stroke-width="1"/>
	</g>
	<text x="544" y="26.75" fill="#000000" font-family="Verdana" font-size="12">SOUTENANCE</text>
	<text x="543" y="51.8" fill="#000000" font-family="Verdana" font-size="12">id_sout</text>
	<line x1="543" y1="54" x2="588" y2="54" stroke="#000000" stroke-width="1"/>
	<text x="543" y="68.8" fill="#000000" font-family="Verdana" font-size="12">date_sout</text>
	<text x="543" y="85.8" fill="#000000" font-family="Verdana" font-size="12">horaire_sout</text>
</g>

<!-- Entity SALLE -->
<g>
	<g>
		<rect x="870" y="17" width="72" height="25" fill="#fdae61" stroke="none" stroke-width="0" opacity="1"/>
		<rect x="870" y="42" width="72" height="43" fill="#fee08b" stroke="none" stroke-width="0" opacity="1"/>
		<rect x="870" y="17" width="72" height="68" fill="none" stroke="#f46d43" stroke-width="2" opacity="1"/>
		<line x1="870" y1="42" x2="942" y2="42" stroke="#f46d43" stroke-width="1"/>
	</g>
	<text x="887" y="34.75" fill="#000000" font-family="Verdana" font-size="12">SALLE</text>
	<text x="875" y="59.8" fill="#000000" font-family="Verdana" font-size="12">id_salle</text>
	<line x1="875" y1="62" x2="922" y2="62" stroke="#000000" stroke-width="1"/>
	<text x="875" y="76.8" fill="#000000" font-family="Verdana" font-size="12">nom_salle</text>
</g>

<!-- Entity ELEVE -->
<g>
	<g>
		<rect x="20" y="193" width="98" height="25" fill="#fdae61" stroke="none" stroke-width="0" opacity="1"/>
		<rect x="20" y="218" width="98" height="77" fill="#fee08b" stroke="none" stroke-width="0" opacity="1"/>
		<rect x="20" y="193" width="98" height="102" fill="none" stroke="#f46d43" stroke-width="2" opacity="1"/>
		<line x1="20" y1="218" x2="118" y2="218" stroke="#f46d43" stroke-width="1"/>
	</g>
	<text x="50" y="210.75" fill="#000000" font-family="Verdana" font-size="12">ELEVE</text>
	<text x="25" y="235.8" fill="#000000" font-family="Verdana" font-size="12">id_eleve</text>
	<line x1="25" y1="238" x2="76" y2="238" stroke="#000000" stroke-width="1"/>
	<text x="25" y="252.8" fill="#000000" font-family="Verdana" font-size="12">nom_eleve</text>
	<text x="25" y="269.8" fill="#000000" font-family="Verdana" font-size="12">prenom_eleve</text>
	<text x="25" y="286.8" fill="#000000" font-family="Verdana" font-size="12">mail_eleve</text>
</g>

<!-- Entity STAGE_ALTERNANCE -->
<g>
	<g>
		<rect x="335" y="202" width="140" height="25" fill="#fdae61" stroke="none" stroke-width="0" opacity="1"/>
		<rect x="335" y="227" width="140" height="59" fill="#fee08b" stroke="none" stroke-width="0" opacity="1"/>
		<rect x="335" y="202" width="140" height="84" fill="none" stroke="#f46d43" stroke-width="2" opacity="1"/>
		<line x1="335" y1="227" x2="475" y2="227" stroke="#f46d43" stroke-width="1"/>
	</g>
	<text x="340" y="219.75" fill="#000000" font-family="Verdana" font-size="12">STAGE_ALTERNANCE</text>
	<text x="340" y="244.8" fill="#000000" font-family="Verdana" font-size="12">id_stag_alt</text>
	<line x1="340" y1="247" x2="408" y2="247" stroke="#000000" stroke-width="1"/>
	<text x="340" y="261.8" fill="#000000" font-family="Verdana" font-size="12">date_debut</text>
	<text x="340" y="278.8" fill="#000000" font-family="Verdana" font-size="12">date_fin</text>
</g>

<!-- Entity PROFESSEUR -->
<g>
	<g>
		<rect x="729" y="202" width="92" height="25" fill="#fdae61" stroke="none" stroke-width="0" opacity="1"/>
		<rect x="729" y="227" width="92" height="59" fill="#fee08b" stroke="none" stroke-width="0" opacity="1"/>
		<rect x="729" y="202" width="92" height="84" fill="none" stroke="#f46d43" stroke-width="2" opacity="1"/>
		<line x1="729" y1="227" x2="821" y2="227" stroke="#f46d43" stroke-width="1"/>
	</g>
	<text x="734" y="219.75" fill="#000000" font-family="Verdana" font-size="12">PROFESSEUR</text>
	<text x="734" y="244.8" fill="#000000" font-family="Verdana" font-size="12">id_prof</text>
	<line x1="734" y1="247" x2="778" y2="247" stroke="#000000" stroke-width="1"/>
	<text x="734" y="261.8" fill="#000000" font-family="Verdana" font-size="12">nom_prof</text>
	<text x="734" y="278.8" fill="#000000" font-family="Verdana" font-size="12">mail</text>
</g>

<!-- Entity ANNEE -->
<g>
	<g>
		<rect x="36" y="328" width="66" height="25" fill="#fdae61" stroke="none" stroke-width="0" opacity="1"/>
		<rect x="36" y="353" width="66" height="43" fill="#fee08b" stroke="none" stroke-width="0" opacity="1"/>
		<rect x="36" y="328" width="66" height="68" fill="none" stroke="#f46d43" stroke-width="2" opacity="1"/>
		<line x1="36" y1="353" x2="102" y2="353" stroke="#f46d43" stroke-width="1"/>
	</g>
	<text x="48" y="345.75" fill="#000000" font-family="Verdana" font-size="12">ANNEE</text>
	<text x="41" y="370.8" fill="#000000" font-family="Verdana" font-size="12">id_annee</text>
	<line x1="41" y1="373" x2="97" y2="373" stroke="#000000" stroke-width="1"/>
	<text x="41" y="387.8" fill="#000000" font-family="Verdana" font-size="12">annee</text>
</g>

<!-- Entity PROMOTION -->
<g>
	<g>
		<rect x="361" y="328" width="88" height="25" fill="#fdae61" stroke="none" stroke-width="0" opacity="1"/>
		<rect x="361" y="353" width="88" height="43" fill="#fee08b" stroke="none" stroke-width="0" opacity="1"/>
		<rect x="361" y="328" width="88" height="68" fill="none" stroke="#f46d43" stroke-width="2" opacity="1"/>
		<line x1="361" y1="353" x2="449" y2="353" stroke="#f46d43" stroke-width="1"/>
	</g>
	<text x="367" y="345.75" fill="#000000" font-family="Verdana" font-size="12">PROMOTION</text>
	<text x="366" y="370.8" fill="#000000" font-family="Verdana" font-size="12">id_promo</text>
	<line x1="366" y1="373" x2="424" y2="373" stroke="#000000" stroke-width="1"/>
	<text x="366" y="387.8" fill="#000000" font-family="Verdana" font-size="12">nom_promo</text>
</g>

<!-- Entity SECRETAIRE -->
<g>
	<g>
		<rect x="731" y="311" width="88" height="25" fill="#fdae61" stroke="none" stroke-width="0" opacity="1"/>
		<rect x="731" y="336" width="88" height="77" fill="#fee08b" stroke="none" stroke-width="0" opacity="1"/>
		<rect x="731" y="311" width="88" height="102" fill="none" stroke="#f46d43" stroke-width="2" opacity="1"/>
		<line x1="731" y1="336" x2="819" y2="336" stroke="#f46d43" stroke-width="1"/>
	</g>
	<text x="736" y="328.75" fill="#000000" font-family="Verdana" font-size="12">SECRETAIRE</text>
	<text x="736" y="353.8" fill="#000000" font-family="Verdana" font-size="12">id_sec</text>
	<line x1="736" y1="356" x2="775" y2="356" stroke="#000000" stroke-width="1"/>
	<text x="736" y="370.8" fill="#000000" font-family="Verdana" font-size="12">nom</text>
	<text x="736" y="387.8" fill="#000000" font-family="Verdana" font-size="12">prenom</text>
	<text x="736" y="404.8" fill="#000000" font-family="Verdana" font-size="12">mail</text>
</g>
</svg>