<?xml version="1.0" encoding="utf-8"?>
<!-- Generated by Mocodo 4.2.10 -->
<svg width="886" height="371" viewBox="0 0 886 371" xmlns="http://www.w3.org/2000/svg">
<rect x="0" y="0" width="886" height="371" fill="#ffffbf" stroke="none" stroke-width="0"/>

<!-- Association TUTEUR_PRO_PARTICIPE -->
<g>
	<line x1="507" y1="43" x2="307" y2="43" stroke="#66bd63" stroke-width="2"/>
	<line x1="307" y1="135" x2="307" y2="43" stroke="#66bd63" stroke-width="2"/>
	<g>
		<path d="M377 18 a14 14 90 0 1 14 14 V43 h-168 V32 a14 14 90 0 1 14 -14" fill="#a6d96a" stroke="#a6d96a" stroke-width="0"/>
		<path d="M391 43 v11 a14 14 90 0 1 -14 14 H237 a14 14 90 0 1 -14 -14 V43 H168" fill="#d9ef8b" stroke="#d9ef8b" stroke-width="0"/>
		<rect x="223" y="18" width="168" height="50" fill="none" rx="14" stroke="#66bd63" stroke-width="2"/>
		<line x1="223" y1="43" x2="391" y2="43" stroke="#66bd63" stroke-width="1"/>
		<text x="230" y="35.75" fill="#000000" font-family="Verdana" font-size="12">TUTEUR_PRO_PARTICIPE</text>
	</g>
	<text x="441" y="60" fill="#d73027" font-family="Verdana" font-size="12">0,N</text>
	<text x="312" y="85" fill="#d73027" font-family="Verdana" font-size="12">1,1</text>
</g>

<!-- Association APPARTIENT -->
<g>
	<line x1="507" y1="43" x2="676" y2="43" stroke="#66bd63" stroke-width="2"/>
	<line x1="676" y1="135" x2="676" y2="43" stroke="#66bd63" stroke-width="2"/>
	<g>
		<path d="M708 18 a14 14 90 0 1 14 14 V43 h-92 V32 a14 14 90 0 1 14 -14" fill="#a6d96a" stroke="#a6d96a" stroke-width="0"/>
		<path d="M722 43 v11 a14 14 90 0 1 -14 14 H644 a14 14 90 0 1 -14 -14 V43 H92" fill="#d9ef8b" stroke="#d9ef8b" stroke-width="0"/>
		<rect x="630" y="18" width="92" height="50" fill="none" rx="14" stroke="#66bd63" stroke-width="2"/>
		<line x1="630" y1="43" x2="722" y2="43" stroke="#66bd63" stroke-width="1"/>
		<text x="638" y="35.75" fill="#000000" font-family="Verdana" font-size="12">APPARTIENT</text>
	</g>
	<text x="551" y="60" fill="#d73027" font-family="Verdana" font-size="12">1,1</text>
	<text x="681" y="93" fill="#d73027" font-family="Verdana" font-size="12">1,N</text>
</g>

<!-- Association EST_DANS_SALLE -->
<g>
	<line x1="307" y1="135" x2="96" y2="135" stroke="#66bd63" stroke-width="2"/>
	<line x1="96" y1="43" x2="96" y2="135" stroke="#66bd63" stroke-width="2"/>
	<g>
		<path d="M145 110 a14 14 90 0 1 14 14 V135 h-126 V124 a14 14 90 0 1 14 -14" fill="#a6d96a" stroke="#a6d96a" stroke-width="0"/>
		<path d="M159 135 v11 a14 14 90 0 1 -14 14 H47 a14 14 90 0 1 -14 -14 V135 H126" fill="#d9ef8b" stroke="#d9ef8b" stroke-width="0"/>
		<rect x="33" y="110" width="126" height="50" fill="none" rx="14" stroke="#66bd63" stroke-width="2"/>
		<line x1="33" y1="135" x2="159" y2="135" stroke="#66bd63" stroke-width="1"/>
		<text x="40" y="127.75" fill="#000000" font-family="Verdana" font-size="12">EST_DANS_SALLE</text>
	</g>
	<text x="237" y="127" fill="#d73027" font-family="Verdana" font-size="12">1,1</text>
	<text x="101" y="94" fill="#d73027" font-family="Verdana" font-size="12">0,N</text>
</g>

<!-- Association EST_TUTEUR_PRO -->
<g>
	<line x1="676" y1="236" x2="507" y2="135" stroke="#66bd63" stroke-width="2"/>
	<line x1="507" y1="43" x2="507" y2="135" stroke="#66bd63" stroke-width="2"/>
	<g>
		<path d="M557 110 a14 14 90 0 1 14 14 V135 h-128 V124 a14 14 90 0 1 14 -14" fill="#a6d96a" stroke="#a6d96a" stroke-width="0"/>
		<path d="M571 135 v11 a14 14 90 0 1 -14 14 H457 a14 14 90 0 1 -14 -14 V135 H128" fill="#d9ef8b" stroke="#d9ef8b" stroke-width="0"/>
		<rect x="443" y="110" width="128" height="50" fill="none" rx="14" stroke="#66bd63" stroke-width="2"/>
		<line x1="443" y1="135" x2="571" y2="135" stroke="#66bd63" stroke-width="1"/>
		<text x="451" y="127.75" fill="#000000" font-family="Verdana" font-size="12">EST_TUTEUR_PRO</text>
	</g>
	<text x="589" y="211.92" fill="#d73027" font-family="Verdana" font-size="12">1,1</text>
	<text x="512" y="94" fill="#d73027" font-family="Verdana" font-size="12">1,N</text>
</g>

<!-- Association EST_DANS_ENTP -->
<g>
	<line x1="676" y1="236" x2="817" y2="135" stroke="#66bd63" stroke-width="2"/>
	<line x1="676" y1="135" x2="817" y2="135" stroke="#66bd63" stroke-width="2"/>
	<g>
		<path d="M863 110 a14 14 90 0 1 14 14 V135 h-120 V124 a14 14 90 0 1 14 -14" fill="#a6d96a" stroke="#a6d96a" stroke-width="0"/>
		<path d="M877 135 v11 a14 14 90 0 1 -14 14 H771 a14 14 90 0 1 -14 -14 V135 H120" fill="#d9ef8b" stroke="#d9ef8b" stroke-width="0"/>
		<rect x="757" y="110" width="120" height="50" fill="none" rx="14" stroke="#66bd63" stroke-width="2"/>
		<line x1="757" y1="135" x2="877" y2="135" stroke="#66bd63" stroke-width="1"/>
		<text x="765" y="127.75" fill="#000000" font-family="Verdana" font-size="12">EST_DANS_ENTP</text>
	</g>
	<text x="714.07" y="186" fill="#d73027" font-family="Verdana" font-size="12">1,1</text>
	<text x="718" y="152" fill="#d73027" font-family="Verdana" font-size="12">1,N</text>
</g>

<!-- Association TUTEUR_UNIV_PARTICIPE -->
<g>
	<line x1="307" y1="328" x2="96" y2="236" stroke="#66bd63" stroke-width="2"/>
	<line x1="307" y1="135" x2="96" y2="236" stroke="#66bd63" stroke-width="2"/>
	<g>
		<path d="M169 211 a14 14 90 0 1 14 14 V236 h-174 V225 a14 14 90 0 1 14 -14" fill="#a6d96a" stroke="#a6d96a" stroke-width="0"/>
		<path d="M183 236 v11 a14 14 90 0 1 -14 14 H23 a14 14 90 0 1 -14 -14 V236 H174" fill="#d9ef8b" stroke="#d9ef8b" stroke-width="0"/>
		<rect x="9" y="211" width="174" height="50" fill="none" rx="14" stroke="#66bd63" stroke-width="2"/>
		<line x1="9" y1="236" x2="183" y2="236" stroke="#66bd63" stroke-width="1"/>
		<text x="16" y="228.75" fill="#000000" font-family="Verdana" font-size="12">TUTEUR_UNIV_PARTICIPE</text>
	</g>
	<text x="243" y="325.45" fill="#d73027" font-family="Verdana" font-size="12">0,N</text>
	<text x="237" y="151.81" fill="#d73027" font-family="Verdana" font-size="12">1,1</text>
</g>

<!-- Association PROF_CANDIDE_PARTICIPE -->
<g>
	<line x1="307" y1="328" x2="307" y2="236" stroke="#66bd63" stroke-width="2"/>
	<line x1="307" y1="135" x2="307" y2="236" stroke="#66bd63" stroke-width="2"/>
	<g>
		<path d="M385 211 a14 14 90 0 1 14 14 V236 h-184 V225 a14 14 90 0 1 14 -14" fill="#a6d96a" stroke="#a6d96a" stroke-width="0"/>
		<path d="M399 236 v11 a14 14 90 0 1 -14 14 H229 a14 14 90 0 1 -14 -14 V236 H184" fill="#d9ef8b" stroke="#d9ef8b" stroke-width="0"/>
		<rect x="215" y="211" width="184" height="50" fill="none" rx="14" stroke="#66bd63" stroke-width="2"/>
		<line x1="215" y1="236" x2="399" y2="236" stroke="#66bd63" stroke-width="1"/>
		<text x="223" y="228.75" fill="#000000" font-family="Verdana" font-size="12">PROF_CANDIDE_PARTICIPE</text>
	</g>
	<text x="312" y="286" fill="#d73027" font-family="Verdana" font-size="12">0,N</text>
	<text x="312" y="194" fill="#d73027" font-family="Verdana" font-size="12">1,1</text>
</g>

<!-- Association APP_STAG_PARTICIPE -->
<g>
	<line x1="676" y1="236" x2="507" y2="236" stroke="#66bd63" stroke-width="2"/>
	<line x1="307" y1="135" x2="507" y2="236" stroke="#66bd63" stroke-width="2"/>
	<g>
		<path d="M569 211 a14 14 90 0 1 14 14 V236 h-152 V225 a14 14 90 0 1 14 -14" fill="#a6d96a" stroke="#a6d96a" stroke-width="0"/>
		<path d="M583 236 v11 a14 14 90 0 1 -14 14 H445 a14 14 90 0 1 -14 -14 V236 H152" fill="#d9ef8b" stroke="#d9ef8b" stroke-width="0"/>
		<rect x="431" y="211" width="152" height="50" fill="none" rx="14" stroke="#66bd63" stroke-width="2"/>
		<line x1="431" y1="236" x2="583" y2="236" stroke="#66bd63" stroke-width="1"/>
		<text x="439" y="228.75" fill="#000000" font-family="Verdana" font-size="12">APP_STAG_PARTICIPE</text>
	</g>
	<text x="588" y="253" fill="#d73027" font-family="Verdana" font-size="12">0,N</text>
	<text x="356" y="153.17" fill="#d73027" font-family="Verdana" font-size="12">1,1</text>
</g>

<!-- Association EST_TUTEUR_UNIV -->
<g>
	<line x1="307" y1="328" x2="507" y2="328" stroke="#66bd63" stroke-width="2"/>
	<line x1="676" y1="236" x2="507" y2="328" stroke="#66bd63" stroke-width="2"/>
	<g>
		<path d="M560 303 a14 14 90 0 1 14 14 V328 h-134 V317 a14 14 90 0 1 14 -14" fill="#a6d96a" stroke="#a6d96a" stroke-width="0"/>
		<path d="M574 328 v11 a14 14 90 0 1 -14 14 H454 a14 14 90 0 1 -14 -14 V328 H134" fill="#d9ef8b" stroke="#d9ef8b" stroke-width="0"/>
		<rect x="440" y="303" width="134" height="50" fill="none" rx="14" stroke="#66bd63" stroke-width="2"/>
		<line x1="440" y1="328" x2="574" y2="328" stroke="#66bd63" stroke-width="1"/>
		<text x="448" y="320.75" fill="#000000" font-family="Verdana" font-size="12">EST_TUTEUR_UNIV</text>
	</g>
	<text x="349" y="345" fill="#d73027" font-family="Verdana" font-size="12">0,N</text>
	<text x="589" y="265.45" fill="#d73027" font-family="Verdana" font-size="12">1,1</text>
</g>

<!-- Association EST_DANS_PROMO -->
<g>
	<line x1="676" y1="236" x2="676" y2="328" stroke="#66bd63" stroke-width="2"/>
	<line x1="817" y1="328" x2="676" y2="328" stroke="#66bd63" stroke-width="2"/>
	<g>
		<path d="M729 303 a14 14 90 0 1 14 14 V328 h-134 V317 a14 14 90 0 1 14 -14" fill="#a6d96a" stroke="#a6d96a" stroke-width="0"/>
		<path d="M743 328 v11 a14 14 90 0 1 -14 14 H623 a14 14 90 0 1 -14 -14 V328 H134" fill="#d9ef8b" stroke="#d9ef8b" stroke-width="0"/>
		<rect x="609" y="303" width="134" height="50" fill="none" rx="14" stroke="#66bd63" stroke-width="2"/>
		<line x1="609" y1="328" x2="743" y2="328" stroke="#66bd63" stroke-width="1"/>
		<text x="617" y="320.75" fill="#000000" font-family="Verdana" font-size="12">EST_DANS_PROMO</text>
	</g>
	<text x="681" y="295" fill="#d73027" font-family="Verdana" font-size="12">1,1</text>
	<text x="748" y="345" fill="#d73027" font-family="Verdana" font-size="12">0,N</text>
</g>

<!-- Entity SALLE -->
<g>
	<g>
		<rect x="60" y="9" width="72" height="25" fill="#fdae61" stroke="none" stroke-width="0" opacity="1"/>
		<rect x="60" y="34" width="72" height="43" fill="#fee08b" stroke="none" stroke-width="0" opacity="1"/>
		<rect x="60" y="9" width="72" height="68" fill="none" stroke="#f46d43" stroke-width="2" opacity="1"/>
		<line x1="60" y1="34" x2="132" y2="34" stroke="#f46d43" stroke-width="1"/>
	</g>
	<text x="81" y="26.75" fill="#000000" font-family="Verdana" font-size="12">Salle</text>
	<text x="65" y="51.8" fill="#000000" font-family="Verdana" font-size="12">id_salle</text>
	<line x1="65" y1="54" x2="112" y2="54" stroke="#000000" stroke-width="1"/>
	<text x="65" y="68.8" fill="#000000" font-family="Verdana" font-size="12">nom_salle</text>
</g>

<!-- Entity TUTEUR_PRO -->
<g>
	<g>
		<rect x="468" y="9" width="78" height="25" fill="#fdae61" stroke="none" stroke-width="0" opacity="1"/>
		<rect x="468" y="34" width="78" height="43" fill="#fee08b" stroke="none" stroke-width="0" opacity="1"/>
		<rect x="468" y="9" width="78" height="68" fill="none" stroke="#f46d43" stroke-width="2" opacity="1"/>
		<line x1="468" y1="34" x2="546" y2="34" stroke="#f46d43" stroke-width="1"/>
	</g>
	<text x="473" y="26.75" fill="#000000" font-family="Verdana" font-size="12">Tuteur_Pro</text>
	<text x="473" y="51.8" fill="#000000" font-family="Verdana" font-size="12">id_tpro</text>
	<line x1="473" y1="54" x2="517" y2="54" stroke="#000000" stroke-width="1"/>
	<text x="473" y="68.8" fill="#000000" font-family="Verdana" font-size="12">nom_tpro</text>
</g>

<!-- Entity SOUTENANCE -->
<g>
	<g>
		<rect x="263" y="93" width="88" height="25" fill="#fdae61" stroke="none" stroke-width="0" opacity="1"/>
		<rect x="263" y="118" width="88" height="59" fill="#fee08b" stroke="none" stroke-width="0" opacity="1"/>
		<rect x="263" y="93" width="88" height="84" fill="none" stroke="#f46d43" stroke-width="2" opacity="1"/>
		<line x1="263" y1="118" x2="351" y2="118" stroke="#f46d43" stroke-width="1"/>
	</g>
	<text x="271" y="110.75" fill="#000000" font-family="Verdana" font-size="12">Soutenance</text>
	<text x="268" y="135.8" fill="#000000" font-family="Verdana" font-size="12">id_sout</text>
	<line x1="268" y1="138" x2="313" y2="138" stroke="#000000" stroke-width="1"/>
	<text x="268" y="152.8" fill="#000000" font-family="Verdana" font-size="12">date_sout</text>
	<text x="268" y="169.8" fill="#000000" font-family="Verdana" font-size="12">horaire_sout</text>
</g>

<!-- Entity ENTREPRISE -->
<g>
	<g>
		<rect x="639" y="101" width="74" height="25" fill="#fdae61" stroke="none" stroke-width="0" opacity="1"/>
		<rect x="639" y="126" width="74" height="43" fill="#fee08b" stroke="none" stroke-width="0" opacity="1"/>
		<rect x="639" y="101" width="74" height="68" fill="none" stroke="#f46d43" stroke-width="2" opacity="1"/>
		<line x1="639" y1="126" x2="713" y2="126" stroke="#f46d43" stroke-width="1"/>
	</g>
	<text x="645" y="118.75" fill="#000000" font-family="Verdana" font-size="12">Entreprise</text>
	<text x="644" y="143.8" fill="#000000" font-family="Verdana" font-size="12">id_entp</text>
	<line x1="644" y1="146" x2="690" y2="146" stroke="#000000" stroke-width="1"/>
	<text x="644" y="160.8" fill="#000000" font-family="Verdana" font-size="12">nom_entp</text>
</g>

<!-- Entity APP_STAGIAIRE -->
<g>
	<g>
		<rect x="615" y="194" width="122" height="25" fill="#fdae61" stroke="none" stroke-width="0" opacity="1"/>
		<rect x="615" y="219" width="122" height="59" fill="#fee08b" stroke="none" stroke-width="0" opacity="1"/>
		<rect x="615" y="194" width="122" height="84" fill="none" stroke="#f46d43" stroke-width="2" opacity="1"/>
		<line x1="615" y1="219" x2="737" y2="219" stroke="#f46d43" stroke-width="1"/>
	</g>
	<text x="633" y="211.75" fill="#000000" font-family="Verdana" font-size="12">App_Stagiaire</text>
	<text x="620" y="236.8" fill="#000000" font-family="Verdana" font-size="12">id_app_stag</text>
	<line x1="620" y1="239" x2="695" y2="239" stroke="#000000" stroke-width="1"/>
	<text x="620" y="253.8" fill="#000000" font-family="Verdana" font-size="12">nom_app_stag</text>
	<text x="620" y="270.8" fill="#000000" font-family="Verdana" font-size="12">prenom_app_stag</text>
</g>

<!-- Entity PROFESSEUR -->
<g>
	<g>
		<rect x="270" y="294" width="74" height="25" fill="#fdae61" stroke="none" stroke-width="0" opacity="1"/>
		<rect x="270" y="319" width="74" height="43" fill="#fee08b" stroke="none" stroke-width="0" opacity="1"/>
		<rect x="270" y="294" width="74" height="68" fill="none" stroke="#f46d43" stroke-width="2" opacity="1"/>
		<line x1="270" y1="319" x2="344" y2="319" stroke="#f46d43" stroke-width="1"/>
	</g>
	<text x="275" y="311.75" fill="#000000" font-family="Verdana" font-size="12">Professeur</text>
	<text x="275" y="336.8" fill="#000000" font-family="Verdana" font-size="12">id_prof</text>
	<line x1="275" y1="339" x2="319" y2="339" stroke="#000000" stroke-width="1"/>
	<text x="275" y="353.8" fill="#000000" font-family="Verdana" font-size="12">nom_prof</text>
</g>

<!-- Entity PROMOTION -->
<g>
	<g>
		<rect x="775" y="294" width="84" height="25" fill="#fdae61" stroke="none" stroke-width="0" opacity="1"/>
		<rect x="775" y="319" width="84" height="43" fill="#fee08b" stroke="none" stroke-width="0" opacity="1"/>
		<rect x="775" y="294" width="84" height="68" fill="none" stroke="#f46d43" stroke-width="2" opacity="1"/>
		<line x1="775" y1="319" x2="859" y2="319" stroke="#f46d43" stroke-width="1"/>
	</g>
	<text x="786" y="311.75" fill="#000000" font-family="Verdana" font-size="12">Promotion</text>
	<text x="780" y="336.8" fill="#000000" font-family="Verdana" font-size="12">id_promo</text>
	<line x1="780" y1="339" x2="838" y2="339" stroke="#000000" stroke-width="1"/>
	<text x="780" y="353.8" fill="#000000" font-family="Verdana" font-size="12">nom_promo</text>
</g>
</svg>