<?xml version="1.0" encoding="utf-8"?>
<!-- Generated by Mocodo 4.2.10 -->
<svg width="866" height="405" viewBox="0 0 866 405" xmlns="http://www.w3.org/2000/svg">
<rect x="0" y="0" width="866" height="405" fill="#ffffbf" stroke="none" stroke-width="0"/>

<!-- Association EST_DANS_ENTP -->
<g>
	<line x1="228" y1="161" x2="69" y2="60" stroke="#66bd63" stroke-width="2"/>
	<line x1="69" y1="161" x2="69" y2="60" stroke="#66bd63" stroke-width="2"/>
	<g>
		<path d="M115 35 a14 14 90 0 1 14 14 V60 h-120 V49 a14 14 90 0 1 14 -14" fill="#a6d96a" stroke="#a6d96a" stroke-width="0"/>
		<path d="M129 60 v11 a14 14 90 0 1 -14 14 H23 a14 14 90 0 1 -14 -14 V60 H120" fill="#d9ef8b" stroke="#d9ef8b" stroke-width="0"/>
		<rect x="9" y="35" width="120" height="50" fill="none" rx="14" stroke="#66bd63" stroke-width="2"/>
		<line x1="9" y1="60" x2="129" y2="60" stroke="#66bd63" stroke-width="1"/>
		<text x="17" y="52.75" fill="#000000" font-family="Verdana" font-size="12">EST_DANS_ENTP</text>
	</g>
	<text x="141" y="134.36" fill="#d73027" font-family="Verdana" font-size="12">1,1</text>
	<text x="74" y="111" fill="#d73027" font-family="Verdana" font-size="12">1,N</text>
</g>

<!-- Association EST_DANS_PROMO -->
<g>
	<line x1="228" y1="161" x2="228" y2="60" stroke="#66bd63" stroke-width="2"/>
	<line x1="400" y1="60" x2="228" y2="60" stroke="#66bd63" stroke-width="2"/>
	<g>
		<path d="M281 35 a14 14 90 0 1 14 14 V60 h-134 V49 a14 14 90 0 1 14 -14" fill="#a6d96a" stroke="#a6d96a" stroke-width="0"/>
		<path d="M295 60 v11 a14 14 90 0 1 -14 14 H175 a14 14 90 0 1 -14 -14 V60 H134" fill="#d9ef8b" stroke="#d9ef8b" stroke-width="0"/>
		<rect x="161" y="35" width="134" height="50" fill="none" rx="14" stroke="#66bd63" stroke-width="2"/>
		<line x1="161" y1="60" x2="295" y2="60" stroke="#66bd63" stroke-width="1"/>
		<text x="169" y="52.75" fill="#000000" font-family="Verdana" font-size="12">EST_DANS_PROMO</text>
	</g>
	<text x="233" y="102" fill="#d73027" font-family="Verdana" font-size="12">1,1</text>
	<text x="329" y="77" fill="#d73027" font-family="Verdana" font-size="12">0,N</text>
</g>

<!-- Association EST_RESPONSABLE -->
<g>
	<line x1="400" y1="60" x2="595" y2="60" stroke="#66bd63" stroke-width="2"/>
	<line x1="595" y1="161" x2="595" y2="60" stroke="#66bd63" stroke-width="2"/>
	<g>
		<path d="M649 35 a14 14 90 0 1 14 14 V60 h-136 V49 a14 14 90 0 1 14 -14" fill="#a6d96a" stroke="#a6d96a" stroke-width="0"/>
		<path d="M663 60 v11 a14 14 90 0 1 -14 14 H541 a14 14 90 0 1 -14 -14 V60 H136" fill="#d9ef8b" stroke="#d9ef8b" stroke-width="0"/>
		<rect x="527" y="35" width="136" height="50" fill="none" rx="14" stroke="#66bd63" stroke-width="2"/>
		<line x1="527" y1="60" x2="663" y2="60" stroke="#66bd63" stroke-width="1"/>
		<text x="535" y="52.75" fill="#000000" font-family="Verdana" font-size="12">EST_RESPONSABLE</text>
	</g>
	<text x="449" y="77" fill="#d73027" font-family="Verdana" font-size="12">1,1</text>
	<text x="600" y="111" fill="#d73027" font-family="Verdana" font-size="12">1,1</text>
</g>

<!-- Association EST_TUTEUR_UNIV -->
<g>
	<line x1="595" y1="161" x2="400" y2="161" stroke="#66bd63" stroke-width="2"/>
	<line x1="228" y1="161" x2="400" y2="161" stroke="#66bd63" stroke-width="2"/>
	<g>
		<path d="M453 136 a14 14 90 0 1 14 14 V161 h-134 V150 a14 14 90 0 1 14 -14" fill="#a6d96a" stroke="#a6d96a" stroke-width="0"/>
		<path d="M467 161 v11 a14 14 90 0 1 -14 14 H347 a14 14 90 0 1 -14 -14 V161 H134" fill="#d9ef8b" stroke="#d9ef8b" stroke-width="0"/>
		<rect x="333" y="136" width="134" height="50" fill="none" rx="14" stroke="#66bd63" stroke-width="2"/>
		<line x1="333" y1="161" x2="467" y2="161" stroke="#66bd63" stroke-width="1"/>
		<text x="341" y="153.75" fill="#000000" font-family="Verdana" font-size="12">EST_TUTEUR_UNIV</text>
	</g>
	<text x="522" y="178" fill="#d73027" font-family="Verdana" font-size="12">0,N</text>
	<text x="294" y="153" fill="#d73027" font-family="Verdana" font-size="12">1,1</text>
</g>

<!-- Association PROF_CANDIDE_PARTICIPE -->
<g>
	<line x1="595" y1="161" x2="765" y2="161" stroke="#66bd63" stroke-width="2"/>
	<line x1="595" y1="354" x2="765" y2="161" stroke="#66bd63" stroke-width="2"/>
	<g>
		<path d="M843 136 a14 14 90 0 1 14 14 V161 h-184 V150 a14 14 90 0 1 14 -14" fill="#a6d96a" stroke="#a6d96a" stroke-width="0"/>
		<path d="M857 161 v11 a14 14 90 0 1 -14 14 H687 a14 14 90 0 1 -14 -14 V161 H184" fill="#d9ef8b" stroke="#d9ef8b" stroke-width="0"/>
		<rect x="673" y="136" width="184" height="50" fill="none" rx="14" stroke="#66bd63" stroke-width="2"/>
		<line x1="673" y1="161" x2="857" y2="161" stroke="#66bd63" stroke-width="1"/>
		<text x="681" y="153.75" fill="#000000" font-family="Verdana" font-size="12">PROF_CANDIDE_PARTICIPE</text>
	</g>
	<text x="646" y="178" fill="#d73027" font-family="Verdana" font-size="12">0,N</text>
	<text x="612.43" y="304" fill="#d73027" font-family="Verdana" font-size="12">1,1</text>
</g>

<!-- Association APPARTIENT -->
<g>
	<line x1="228" y1="354" x2="69" y2="262" stroke="#66bd63" stroke-width="2"/>
	<line x1="69" y1="161" x2="69" y2="262" stroke="#66bd63" stroke-width="2"/>
	<g>
		<path d="M101 237 a14 14 90 0 1 14 14 V262 h-92 V251 a14 14 90 0 1 14 -14" fill="#a6d96a" stroke="#a6d96a" stroke-width="0"/>
		<path d="M115 262 v11 a14 14 90 0 1 -14 14 H37 a14 14 90 0 1 -14 -14 V262 H92" fill="#d9ef8b" stroke="#d9ef8b" stroke-width="0"/>
		<rect x="23" y="237" width="92" height="50" fill="none" rx="14" stroke="#66bd63" stroke-width="2"/>
		<line x1="23" y1="262" x2="115" y2="262" stroke="#66bd63" stroke-width="1"/>
		<text x="31" y="254.75" fill="#000000" font-family="Verdana" font-size="12">APPARTIENT</text>
	</g>
	<text x="156" y="339.89" fill="#d73027" font-family="Verdana" font-size="12">1,1</text>
	<text x="74" y="220" fill="#d73027" font-family="Verdana" font-size="12">1,N</text>
</g>

<!-- Association EST_TUTEUR_PRO -->
<g>
	<line x1="228" y1="161" x2="228" y2="262" stroke="#66bd63" stroke-width="2"/>
	<line x1="228" y1="354" x2="228" y2="262" stroke="#66bd63" stroke-width="2"/>
	<g>
		<path d="M278 237 a14 14 90 0 1 14 14 V262 h-128 V251 a14 14 90 0 1 14 -14" fill="#a6d96a" stroke="#a6d96a" stroke-width="0"/>
		<path d="M292 262 v11 a14 14 90 0 1 -14 14 H178 a14 14 90 0 1 -14 -14 V262 H128" fill="#d9ef8b" stroke="#d9ef8b" stroke-width="0"/>
		<rect x="164" y="237" width="128" height="50" fill="none" rx="14" stroke="#66bd63" stroke-width="2"/>
		<line x1="164" y1="262" x2="292" y2="262" stroke="#66bd63" stroke-width="1"/>
		<text x="172" y="254.75" fill="#000000" font-family="Verdana" font-size="12">EST_TUTEUR_PRO</text>
	</g>
	<text x="202" y="229" fill="#d73027" font-family="Verdana" font-size="12">1,1</text>
	<text x="233" y="312" fill="#d73027" font-family="Verdana" font-size="12">1,N</text>
</g>

<!-- Association APP_STAG_PARTICIPE -->
<g>
	<line x1="228" y1="161" x2="400" y2="262" stroke="#66bd63" stroke-width="2"/>
	<line x1="595" y1="354" x2="400" y2="262" stroke="#66bd63" stroke-width="2"/>
	<g>
		<path d="M462 237 a14 14 90 0 1 14 14 V262 h-152 V251 a14 14 90 0 1 14 -14" fill="#a6d96a" stroke="#a6d96a" stroke-width="0"/>
		<path d="M476 262 v11 a14 14 90 0 1 -14 14 H338 a14 14 90 0 1 -14 -14 V262 H152" fill="#d9ef8b" stroke="#d9ef8b" stroke-width="0"/>
		<rect x="324" y="237" width="152" height="50" fill="none" rx="14" stroke="#66bd63" stroke-width="2"/>
		<line x1="324" y1="262" x2="476" y2="262" stroke="#66bd63" stroke-width="1"/>
		<text x="332" y="254.75" fill="#000000" font-family="Verdana" font-size="12">APP_STAG_PARTICIPE</text>
	</g>
	<text x="294" y="193.37" fill="#d73027" font-family="Verdana" font-size="12">0,N</text>
	<text x="521" y="344.66" fill="#d73027" font-family="Verdana" font-size="12">1,1</text>
</g>

<!-- Association TUTEUR_UNIV_PARTICIPE -->
<g>
	<line x1="595" y1="161" x2="595" y2="262" stroke="#66bd63" stroke-width="2"/>
	<line x1="595" y1="354" x2="595" y2="262" stroke="#66bd63" stroke-width="2"/>
	<g>
		<path d="M668 237 a14 14 90 0 1 14 14 V262 h-174 V251 a14 14 90 0 1 14 -14" fill="#a6d96a" stroke="#a6d96a" stroke-width="0"/>
		<path d="M682 262 v11 a14 14 90 0 1 -14 14 H522 a14 14 90 0 1 -14 -14 V262 H174" fill="#d9ef8b" stroke="#d9ef8b" stroke-width="0"/>
		<rect x="508" y="237" width="174" height="50" fill="none" rx="14" stroke="#66bd63" stroke-width="2"/>
		<line x1="508" y1="262" x2="682" y2="262" stroke="#66bd63" stroke-width="1"/>
		<text x="515" y="254.75" fill="#000000" font-family="Verdana" font-size="12">TUTEUR_UNIV_PARTICIPE</text>
	</g>
	<text x="600" y="220" fill="#d73027" font-family="Verdana" font-size="12">0,N</text>
	<text x="600" y="304" fill="#d73027" font-family="Verdana" font-size="12">1,1</text>
</g>

<!-- Association TUTEUR_PRO_PARTICIPE -->
<g>
	<line x1="228" y1="354" x2="400" y2="354" stroke="#66bd63" stroke-width="2"/>
	<line x1="595" y1="354" x2="400" y2="354" stroke="#66bd63" stroke-width="2"/>
	<g>
		<path d="M470 329 a14 14 90 0 1 14 14 V354 h-168 V343 a14 14 90 0 1 14 -14" fill="#a6d96a" stroke="#a6d96a" stroke-width="0"/>
		<path d="M484 354 v11 a14 14 90 0 1 -14 14 H330 a14 14 90 0 1 -14 -14 V354 H168" fill="#d9ef8b" stroke="#d9ef8b" stroke-width="0"/>
		<rect x="316" y="329" width="168" height="50" fill="none" rx="14" stroke="#66bd63" stroke-width="2"/>
		<line x1="316" y1="354" x2="484" y2="354" stroke="#66bd63" stroke-width="1"/>
		<text x="323" y="346.75" fill="#000000" font-family="Verdana" font-size="12">TUTEUR_PRO_PARTICIPE</text>
	</g>
	<text x="279" y="371" fill="#d73027" font-family="Verdana" font-size="12">0,N</text>
	<text x="521" y="371" fill="#d73027" font-family="Verdana" font-size="12">1,1</text>
</g>

<!-- Association EST_DANS_SALLE -->
<g>
	<line x1="595" y1="354" x2="765" y2="354" stroke="#66bd63" stroke-width="2"/>
	<line x1="765" y1="262" x2="765" y2="354" stroke="#66bd63" stroke-width="2"/>
	<g>
		<path d="M814 329 a14 14 90 0 1 14 14 V354 h-126 V343 a14 14 90 0 1 14 -14" fill="#a6d96a" stroke="#a6d96a" stroke-width="0"/>
		<path d="M828 354 v11 a14 14 90 0 1 -14 14 H716 a14 14 90 0 1 -14 -14 V354 H126" fill="#d9ef8b" stroke="#d9ef8b" stroke-width="0"/>
		<rect x="702" y="329" width="126" height="50" fill="none" rx="14" stroke="#66bd63" stroke-width="2"/>
		<line x1="702" y1="354" x2="828" y2="354" stroke="#66bd63" stroke-width="1"/>
		<text x="709" y="346.75" fill="#000000" font-family="Verdana" font-size="12">EST_DANS_SALLE</text>
	</g>
	<text x="648" y="371" fill="#d73027" font-family="Verdana" font-size="12">1,1</text>
	<text x="770" y="313" fill="#d73027" font-family="Verdana" font-size="12">0,N</text>
</g>

<!-- Entity PROMOTION -->
<g>
	<g>
		<rect x="356" y="26" width="88" height="25" fill="#fdae61" stroke="none" stroke-width="0" opacity="1"/>
		<rect x="356" y="51" width="88" height="43" fill="#fee08b" stroke="none" stroke-width="0" opacity="1"/>
		<rect x="356" y="26" width="88" height="68" fill="none" stroke="#f46d43" stroke-width="2" opacity="1"/>
		<line x1="356" y1="51" x2="444" y2="51" stroke="#f46d43" stroke-width="1"/>
	</g>
	<text x="362" y="43.75" fill="#000000" font-family="Verdana" font-size="12">PROMOTION</text>
	<text x="361" y="68.8" fill="#000000" font-family="Verdana" font-size="12">id_promo</text>
	<line x1="361" y1="71" x2="419" y2="71" stroke="#000000" stroke-width="1"/>
	<text x="361" y="85.8" fill="#000000" font-family="Verdana" font-size="12">nom_promo</text>
</g>

<!-- Entity SECRETAIRE -->
<g>
	<g>
		<rect x="721" y="9" width="88" height="25" fill="#fdae61" stroke="none" stroke-width="0" opacity="1"/>
		<rect x="721" y="34" width="88" height="77" fill="#fee08b" stroke="none" stroke-width="0" opacity="1"/>
		<rect x="721" y="9" width="88" height="102" fill="none" stroke="#f46d43" stroke-width="2" opacity="1"/>
		<line x1="721" y1="34" x2="809" y2="34" stroke="#f46d43" stroke-width="1"/>
	</g>
	<text x="726" y="26.75" fill="#000000" font-family="Verdana" font-size="12">SECRETAIRE</text>
	<text x="726" y="51.8" fill="#000000" font-family="Verdana" font-size="12">id_sec</text>
	<line x1="726" y1="54" x2="765" y2="54" stroke="#000000" stroke-width="1"/>
	<text x="726" y="68.8" fill="#000000" font-family="Verdana" font-size="12">nom</text>
	<text x="726" y="85.8" fill="#000000" font-family="Verdana" font-size="12">prenom</text>
	<text x="726" y="102.8" fill="#000000" font-family="Verdana" font-size="12">mail</text>
</g>

<!-- Entity ENTREPRISE -->
<g>
	<g>
		<rect x="25" y="119" width="88" height="25" fill="#fdae61" stroke="none" stroke-width="0" opacity="1"/>
		<rect x="25" y="144" width="88" height="59" fill="#fee08b" stroke="none" stroke-width="0" opacity="1"/>
		<rect x="25" y="119" width="88" height="84" fill="none" stroke="#f46d43" stroke-width="2" opacity="1"/>
		<line x1="25" y1="144" x2="113" y2="144" stroke="#f46d43" stroke-width="1"/>
	</g>
	<text x="31" y="136.75" fill="#000000" font-family="Verdana" font-size="12">ENTREPRISE</text>
	<text x="30" y="161.8" fill="#000000" font-family="Verdana" font-size="12">id_entp</text>
	<line x1="30" y1="164" x2="76" y2="164" stroke="#000000" stroke-width="1"/>
	<text x="30" y="178.8" fill="#000000" font-family="Verdana" font-size="12">nom_entp</text>
	<text x="30" y="195.8" fill="#000000" font-family="Verdana" font-size="12">mail</text>
</g>

<!-- Entity APP_STAGIAIRE -->
<g>
	<g>
		<rect x="167" y="110" width="122" height="25" fill="#fdae61" stroke="none" stroke-width="0" opacity="1"/>
		<rect x="167" y="135" width="122" height="77" fill="#fee08b" stroke="none" stroke-width="0" opacity="1"/>
		<rect x="167" y="110" width="122" height="102" fill="none" stroke="#f46d43" stroke-width="2" opacity="1"/>
		<line x1="167" y1="135" x2="289" y2="135" stroke="#f46d43" stroke-width="1"/>
	</g>
	<text x="179" y="127.75" fill="#000000" font-family="Verdana" font-size="12">APP_STAGIAIRE</text>
	<text x="172" y="152.8" fill="#000000" font-family="Verdana" font-size="12">id_app_stag</text>
	<line x1="172" y1="155" x2="247" y2="155" stroke="#000000" stroke-width="1"/>
	<text x="172" y="169.8" fill="#000000" font-family="Verdana" font-size="12">nom_app_stag</text>
	<text x="172" y="186.8" fill="#000000" font-family="Verdana" font-size="12">prenom_app_stag</text>
	<text x="172" y="203.8" fill="#000000" font-family="Verdana" font-size="12">mail</text>
</g>

<!-- Entity PROFESSEUR -->
<g>
	<g>
		<rect x="549" y="119" width="92" height="25" fill="#fdae61" stroke="none" stroke-width="0" opacity="1"/>
		<rect x="549" y="144" width="92" height="59" fill="#fee08b" stroke="none" stroke-width="0" opacity="1"/>
		<rect x="549" y="119" width="92" height="84" fill="none" stroke="#f46d43" stroke-width="2" opacity="1"/>
		<line x1="549" y1="144" x2="641" y2="144" stroke="#f46d43" stroke-width="1"/>
	</g>
	<text x="554" y="136.75" fill="#000000" font-family="Verdana" font-size="12">PROFESSEUR</text>
	<text x="554" y="161.8" fill="#000000" font-family="Verdana" font-size="12">id_prof</text>
	<line x1="554" y1="164" x2="598" y2="164" stroke="#000000" stroke-width="1"/>
	<text x="554" y="178.8" fill="#000000" font-family="Verdana" font-size="12">nom_prof</text>
	<text x="554" y="195.8" fill="#000000" font-family="Verdana" font-size="12">mail</text>
</g>

<!-- Entity SALLE -->
<g>
	<g>
		<rect x="729" y="228" width="72" height="25" fill="#fdae61" stroke="none" stroke-width="0" opacity="1"/>
		<rect x="729" y="253" width="72" height="43" fill="#fee08b" stroke="none" stroke-width="0" opacity="1"/>
		<rect x="729" y="228" width="72" height="68" fill="none" stroke="#f46d43" stroke-width="2" opacity="1"/>
		<line x1="729" y1="253" x2="801" y2="253" stroke="#f46d43" stroke-width="1"/>
	</g>
	<text x="746" y="245.75" fill="#000000" font-family="Verdana" font-size="12">SALLE</text>
	<text x="734" y="270.8" fill="#000000" font-family="Verdana" font-size="12">id_salle</text>
	<line x1="734" y1="273" x2="781" y2="273" stroke="#000000" stroke-width="1"/>
	<text x="734" y="287.8" fill="#000000" font-family="Verdana" font-size="12">nom_salle</text>
</g>

<!-- Entity TUTEUR_PRO -->
<g>
	<g>
		<rect x="182" y="320" width="92" height="25" fill="#fdae61" stroke="none" stroke-width="0" opacity="1"/>
		<rect x="182" y="345" width="92" height="43" fill="#fee08b" stroke="none" stroke-width="0" opacity="1"/>
		<rect x="182" y="320" width="92" height="68" fill="none" stroke="#f46d43" stroke-width="2" opacity="1"/>
		<line x1="182" y1="345" x2="274" y2="345" stroke="#f46d43" stroke-width="1"/>
	</g>
	<text x="187" y="337.75" fill="#000000" font-family="Verdana" font-size="12">TUTEUR_PRO</text>
	<text x="187" y="362.8" fill="#000000" font-family="Verdana" font-size="12">id_tpro</text>
	<line x1="187" y1="365" x2="231" y2="365" stroke="#000000" stroke-width="1"/>
	<text x="187" y="379.8" fill="#000000" font-family="Verdana" font-size="12">nom_tpro</text>
</g>

<!-- Entity SOUTENANCE -->
<g>
	<g>
		<rect x="547" y="312" width="96" height="25" fill="#fdae61" stroke="none" stroke-width="0" opacity="1"/>
		<rect x="547" y="337" width="96" height="59" fill="#fee08b" stroke="none" stroke-width="0" opacity="1"/>
		<rect x="547" y="312" width="96" height="84" fill="none" stroke="#f46d43" stroke-width="2" opacity="1"/>
		<line x1="547" y1="337" x2="643" y2="337" stroke="#f46d43" stroke-width="1"/>
	</g>
	<text x="553" y="329.75" fill="#000000" font-family="Verdana" font-size="12">SOUTENANCE</text>
	<text x="552" y="354.8" fill="#000000" font-family="Verdana" font-size="12">id_sout</text>
	<line x1="552" y1="357" x2="597" y2="357" stroke="#000000" stroke-width="1"/>
	<text x="552" y="371.8" fill="#000000" font-family="Verdana" font-size="12">date_sout</text>
	<text x="552" y="388.8" fill="#000000" font-family="Verdana" font-size="12">horaire_sout</text>
</g>
</svg>