<?xml version="1.0" encoding="utf-8"?>
<!-- Generated by Mocodo 4.2.10 -->
<svg width="984" height="405" viewBox="0 0 984 405" xmlns="http://www.w3.org/2000/svg">
<rect x="0" y="0" width="984" height="405" fill="#ffffbf" stroke="none" stroke-width="0"/>

<!-- Association EST_DANS_SALLE -->
<g>
	<line x1="395" y1="51" x2="184" y2="51" stroke="#66bd63" stroke-width="2"/>
	<line x1="53" y1="51" x2="184" y2="51" stroke="#66bd63" stroke-width="2"/>
	<g>
		<path d="M233 26 a14 14 90 0 1 14 14 V51 h-126 V40 a14 14 90 0 1 14 -14" fill="#a6d96a" stroke="#a6d96a" stroke-width="0"/>
		<path d="M247 51 v11 a14 14 90 0 1 -14 14 H135 a14 14 90 0 1 -14 -14 V51 H126" fill="#d9ef8b" stroke="#d9ef8b" stroke-width="0"/>
		<rect x="121" y="26" width="126" height="50" fill="none" rx="14" stroke="#66bd63" stroke-width="2"/>
		<line x1="121" y1="51" x2="247" y2="51" stroke="#66bd63" stroke-width="1"/>
		<text x="128" y="43.75" fill="#000000" font-family="Verdana" font-size="12">EST_DANS_SALLE</text>
	</g>
	<text x="321" y="43" fill="#d73027" font-family="Verdana" font-size="12">1,1</text>
	<text x="94" y="68" fill="#d73027" font-family="Verdana" font-size="12">0,N</text>
</g>

<!-- Association TUTEUR_PRO_PARTICIPE -->
<g>
	<line x1="762" y1="51" x2="590" y2="51" stroke="#66bd63" stroke-width="2"/>
	<line x1="395" y1="51" x2="590" y2="51" stroke="#66bd63" stroke-width="2"/>
	<g>
		<path d="M660 26 a14 14 90 0 1 14 14 V51 h-168 V40 a14 14 90 0 1 14 -14" fill="#a6d96a" stroke="#a6d96a" stroke-width="0"/>
		<path d="M674 51 v11 a14 14 90 0 1 -14 14 H520 a14 14 90 0 1 -14 -14 V51 H168" fill="#d9ef8b" stroke="#d9ef8b" stroke-width="0"/>
		<rect x="506" y="26" width="168" height="50" fill="none" rx="14" stroke="#66bd63" stroke-width="2"/>
		<line x1="506" y1="51" x2="674" y2="51" stroke="#66bd63" stroke-width="1"/>
		<text x="513" y="43.75" fill="#000000" font-family="Verdana" font-size="12">TUTEUR_PRO_PARTICIPE</text>
	</g>
	<text x="689" y="68" fill="#d73027" font-family="Verdana" font-size="12">0,N</text>
	<text x="448" y="43" fill="#d73027" font-family="Verdana" font-size="12">1,1</text>
</g>

<!-- Association APPARTIENT -->
<g>
	<line x1="762" y1="51" x2="915" y2="51" stroke="#66bd63" stroke-width="2"/>
	<line x1="915" y1="143" x2="915" y2="51" stroke="#66bd63" stroke-width="2"/>
	<g>
		<path d="M947 26 a14 14 90 0 1 14 14 V51 h-92 V40 a14 14 90 0 1 14 -14" fill="#a6d96a" stroke="#a6d96a" stroke-width="0"/>
		<path d="M961 51 v11 a14 14 90 0 1 -14 14 H883 a14 14 90 0 1 -14 -14 V51 H92" fill="#d9ef8b" stroke="#d9ef8b" stroke-width="0"/>
		<rect x="869" y="26" width="92" height="50" fill="none" rx="14" stroke="#66bd63" stroke-width="2"/>
		<line x1="869" y1="51" x2="961" y2="51" stroke="#66bd63" stroke-width="1"/>
		<text x="877" y="43.75" fill="#000000" font-family="Verdana" font-size="12">APPARTIENT</text>
	</g>
	<text x="813" y="68" fill="#d73027" font-family="Verdana" font-size="12">1,1</text>
	<text x="920" y="93" fill="#d73027" font-family="Verdana" font-size="12">1,N</text>
</g>

<!-- Association PROF_CANDIDE_PARTICIPE -->
<g>
	<line x1="395" y1="244" x2="184" y2="143" stroke="#66bd63" stroke-width="2"/>
	<line x1="395" y1="51" x2="184" y2="143" stroke="#66bd63" stroke-width="2"/>
	<g>
		<path d="M262 118 a14 14 90 0 1 14 14 V143 h-184 V132 a14 14 90 0 1 14 -14" fill="#a6d96a" stroke="#a6d96a" stroke-width="0"/>
		<path d="M276 143 v11 a14 14 90 0 1 -14 14 H106 a14 14 90 0 1 -14 -14 V143 H184" fill="#d9ef8b" stroke="#d9ef8b" stroke-width="0"/>
		<rect x="92" y="118" width="184" height="50" fill="none" rx="14" stroke="#66bd63" stroke-width="2"/>
		<line x1="92" y1="143" x2="276" y2="143" stroke="#66bd63" stroke-width="1"/>
		<text x="100" y="135.75" fill="#000000" font-family="Verdana" font-size="12">PROF_CANDIDE_PARTICIPE</text>
	</g>
	<text x="322" y="235.24" fill="#d73027" font-family="Verdana" font-size="12">0,N</text>
	<text x="321" y="67.34" fill="#d73027" font-family="Verdana" font-size="12">1,1</text>
</g>

<!-- Association TUTEUR_UNIV_PARTICIPE -->
<g>
	<line x1="395" y1="244" x2="395" y2="143" stroke="#66bd63" stroke-width="2"/>
	<line x1="395" y1="51" x2="395" y2="143" stroke="#66bd63" stroke-width="2"/>
	<g>
		<path d="M468 118 a14 14 90 0 1 14 14 V143 h-174 V132 a14 14 90 0 1 14 -14" fill="#a6d96a" stroke="#a6d96a" stroke-width="0"/>
		<path d="M482 143 v11 a14 14 90 0 1 -14 14 H322 a14 14 90 0 1 -14 -14 V143 H174" fill="#d9ef8b" stroke="#d9ef8b" stroke-width="0"/>
		<rect x="308" y="118" width="174" height="50" fill="none" rx="14" stroke="#66bd63" stroke-width="2"/>
		<line x1="308" y1="143" x2="482" y2="143" stroke="#66bd63" stroke-width="1"/>
		<text x="315" y="135.75" fill="#000000" font-family="Verdana" font-size="12">TUTEUR_UNIV_PARTICIPE</text>
	</g>
	<text x="400" y="194" fill="#d73027" font-family="Verdana" font-size="12">0,N</text>
	<text x="400" y="110" fill="#d73027" font-family="Verdana" font-size="12">1,1</text>
</g>

<!-- Association APP_STAG_PARTICIPE -->
<g>
	<line x1="762" y1="244" x2="590" y2="143" stroke="#66bd63" stroke-width="2"/>
	<line x1="395" y1="51" x2="590" y2="143" stroke="#66bd63" stroke-width="2"/>
	<g>
		<path d="M652 118 a14 14 90 0 1 14 14 V143 h-152 V132 a14 14 90 0 1 14 -14" fill="#a6d96a" stroke="#a6d96a" stroke-width="0"/>
		<path d="M666 143 v11 a14 14 90 0 1 -14 14 H528 a14 14 90 0 1 -14 -14 V143 H152" fill="#d9ef8b" stroke="#d9ef8b" stroke-width="0"/>
		<rect x="514" y="118" width="152" height="50" fill="none" rx="14" stroke="#66bd63" stroke-width="2"/>
		<line x1="514" y1="143" x2="666" y2="143" stroke="#66bd63" stroke-width="1"/>
		<text x="522" y="135.75" fill="#000000" font-family="Verdana" font-size="12">APP_STAG_PARTICIPE</text>
	</g>
	<text x="674" y="220.63" fill="#d73027" font-family="Verdana" font-size="12">0,N</text>
	<text x="448" y="69.34" fill="#d73027" font-family="Verdana" font-size="12">1,1</text>
</g>

<!-- Association EST_TUTEUR_PRO -->
<g>
	<line x1="762" y1="244" x2="762" y2="143" stroke="#66bd63" stroke-width="2"/>
	<line x1="762" y1="51" x2="762" y2="143" stroke="#66bd63" stroke-width="2"/>
	<g>
		<path d="M812 118 a14 14 90 0 1 14 14 V143 h-128 V132 a14 14 90 0 1 14 -14" fill="#a6d96a" stroke="#a6d96a" stroke-width="0"/>
		<path d="M826 143 v11 a14 14 90 0 1 -14 14 H712 a14 14 90 0 1 -14 -14 V143 H128" fill="#d9ef8b" stroke="#d9ef8b" stroke-width="0"/>
		<rect x="698" y="118" width="128" height="50" fill="none" rx="14" stroke="#66bd63" stroke-width="2"/>
		<line x1="698" y1="143" x2="826" y2="143" stroke="#66bd63" stroke-width="1"/>
		<text x="706" y="135.75" fill="#000000" font-family="Verdana" font-size="12">EST_TUTEUR_PRO</text>
	</g>
	<text x="767" y="185" fill="#d73027" font-family="Verdana" font-size="12">1,1</text>
	<text x="767" y="102" fill="#d73027" font-family="Verdana" font-size="12">1,N</text>
</g>

<!-- Association EST_TUTEUR_UNIV -->
<g>
	<line x1="395" y1="244" x2="590" y2="244" stroke="#66bd63" stroke-width="2"/>
	<line x1="762" y1="244" x2="590" y2="244" stroke="#66bd63" stroke-width="2"/>
	<g>
		<path d="M643 219 a14 14 90 0 1 14 14 V244 h-134 V233 a14 14 90 0 1 14 -14" fill="#a6d96a" stroke="#a6d96a" stroke-width="0"/>
		<path d="M657 244 v11 a14 14 90 0 1 -14 14 H537 a14 14 90 0 1 -14 -14 V244 H134" fill="#d9ef8b" stroke="#d9ef8b" stroke-width="0"/>
		<rect x="523" y="219" width="134" height="50" fill="none" rx="14" stroke="#66bd63" stroke-width="2"/>
		<line x1="523" y1="244" x2="657" y2="244" stroke="#66bd63" stroke-width="1"/>
		<text x="531" y="236.75" fill="#000000" font-family="Verdana" font-size="12">EST_TUTEUR_UNIV</text>
	</g>
	<text x="446" y="261" fill="#d73027" font-family="Verdana" font-size="12">0,N</text>
	<text x="675" y="261" fill="#d73027" font-family="Verdana" font-size="12">1,1</text>
</g>

<!-- Association EST_DANS_ENTP -->
<g>
	<line x1="762" y1="244" x2="915" y2="244" stroke="#66bd63" stroke-width="2"/>
	<line x1="915" y1="143" x2="915" y2="244" stroke="#66bd63" stroke-width="2"/>
	<g>
		<path d="M961 219 a14 14 90 0 1 14 14 V244 h-120 V233 a14 14 90 0 1 14 -14" fill="#a6d96a" stroke="#a6d96a" stroke-width="0"/>
		<path d="M975 244 v11 a14 14 90 0 1 -14 14 H869 a14 14 90 0 1 -14 -14 V244 H120" fill="#d9ef8b" stroke="#d9ef8b" stroke-width="0"/>
		<rect x="855" y="219" width="120" height="50" fill="none" rx="14" stroke="#66bd63" stroke-width="2"/>
		<line x1="855" y1="244" x2="975" y2="244" stroke="#66bd63" stroke-width="1"/>
		<text x="863" y="236.75" fill="#000000" font-family="Verdana" font-size="12">EST_DANS_ENTP</text>
	</g>
	<text x="828" y="261" fill="#d73027" font-family="Verdana" font-size="12">1,1</text>
	<text x="920" y="202" fill="#d73027" font-family="Verdana" font-size="12">1,N</text>
</g>

<!-- Association EST_RESPONSABLE -->
<g>
	<line x1="590" y1="345" x2="395" y2="345" stroke="#66bd63" stroke-width="2"/>
	<line x1="184" y1="345" x2="395" y2="345" stroke="#66bd63" stroke-width="2"/>
	<g>
		<path d="M449 320 a14 14 90 0 1 14 14 V345 h-136 V334 a14 14 90 0 1 14 -14" fill="#a6d96a" stroke="#a6d96a" stroke-width="0"/>
		<path d="M463 345 v11 a14 14 90 0 1 -14 14 H341 a14 14 90 0 1 -14 -14 V345 H136" fill="#d9ef8b" stroke="#d9ef8b" stroke-width="0"/>
		<rect x="327" y="320" width="136" height="50" fill="none" rx="14" stroke="#66bd63" stroke-width="2"/>
		<line x1="327" y1="345" x2="463" y2="345" stroke="#66bd63" stroke-width="1"/>
		<text x="335" y="337.75" fill="#000000" font-family="Verdana" font-size="12">EST_RESPONSABLE</text>
	</g>
	<text x="520" y="362" fill="#d73027" font-family="Verdana" font-size="12">1,1</text>
	<text x="228" y="362" fill="#d73027" font-family="Verdana" font-size="12">1,1</text>
</g>

<!-- Association EST_DANS_PROMO -->
<g>
	<line x1="762" y1="244" x2="762" y2="345" stroke="#66bd63" stroke-width="2"/>
	<line x1="590" y1="345" x2="762" y2="345" stroke="#66bd63" stroke-width="2"/>
	<g>
		<path d="M815 320 a14 14 90 0 1 14 14 V345 h-134 V334 a14 14 90 0 1 14 -14" fill="#a6d96a" stroke="#a6d96a" stroke-width="0"/>
		<path d="M829 345 v11 a14 14 90 0 1 -14 14 H709 a14 14 90 0 1 -14 -14 V345 H134" fill="#d9ef8b" stroke="#d9ef8b" stroke-width="0"/>
		<rect x="695" y="320" width="134" height="50" fill="none" rx="14" stroke="#66bd63" stroke-width="2"/>
		<line x1="695" y1="345" x2="829" y2="345" stroke="#66bd63" stroke-width="1"/>
		<text x="703" y="337.75" fill="#000000" font-family="Verdana" font-size="12">EST_DANS_PROMO</text>
	</g>
	<text x="767" y="312" fill="#d73027" font-family="Verdana" font-size="12">1,1</text>
	<text x="639" y="362" fill="#d73027" font-family="Verdana" font-size="12">0,N</text>
</g>

<!-- Entity SALLE -->
<g>
	<g>
		<rect x="17" y="17" width="72" height="25" fill="#fdae61" stroke="none" stroke-width="0" opacity="1"/>
		<rect x="17" y="42" width="72" height="43" fill="#fee08b" stroke="none" stroke-width="0" opacity="1"/>
		<rect x="17" y="17" width="72" height="68" fill="none" stroke="#f46d43" stroke-width="2" opacity="1"/>
		<line x1="17" y1="42" x2="89" y2="42" stroke="#f46d43" stroke-width="1"/>
	</g>
	<text x="34" y="34.75" fill="#000000" font-family="Verdana" font-size="12">SALLE</text>
	<text x="22" y="59.8" fill="#000000" font-family="Verdana" font-size="12">id_salle</text>
	<line x1="22" y1="62" x2="69" y2="62" stroke="#000000" stroke-width="1"/>
	<text x="22" y="76.8" fill="#000000" font-family="Verdana" font-size="12">nom_salle</text>
</g>

<!-- Entity SOUTENANCE -->
<g>
	<g>
		<rect x="347" y="9" width="96" height="25" fill="#fdae61" stroke="none" stroke-width="0" opacity="1"/>
		<rect x="347" y="34" width="96" height="59" fill="#fee08b" stroke="none" stroke-width="0" opacity="1"/>
		<rect x="347" y="9" width="96" height="84" fill="none" stroke="#f46d43" stroke-width="2" opacity="1"/>
		<line x1="347" y1="34" x2="443" y2="34" stroke="#f46d43" stroke-width="1"/>
	</g>
	<text x="353" y="26.75" fill="#000000" font-family="Verdana" font-size="12">SOUTENANCE</text>
	<text x="352" y="51.8" fill="#000000" font-family="Verdana" font-size="12">id_sout</text>
	<line x1="352" y1="54" x2="397" y2="54" stroke="#000000" stroke-width="1"/>
	<text x="352" y="68.8" fill="#000000" font-family="Verdana" font-size="12">date_sout</text>
	<text x="352" y="85.8" fill="#000000" font-family="Verdana" font-size="12">horaire_sout</text>
</g>

<!-- Entity TUTEUR_PRO -->
<g>
	<g>
		<rect x="716" y="17" width="92" height="25" fill="#fdae61" stroke="none" stroke-width="0" opacity="1"/>
		<rect x="716" y="42" width="92" height="43" fill="#fee08b" stroke="none" stroke-width="0" opacity="1"/>
		<rect x="716" y="17" width="92" height="68" fill="none" stroke="#f46d43" stroke-width="2" opacity="1"/>
		<line x1="716" y1="42" x2="808" y2="42" stroke="#f46d43" stroke-width="1"/>
	</g>
	<text x="721" y="34.75" fill="#000000" font-family="Verdana" font-size="12">TUTEUR_PRO</text>
	<text x="721" y="59.8" fill="#000000" font-family="Verdana" font-size="12">id_tpro</text>
	<line x1="721" y1="62" x2="765" y2="62" stroke="#000000" stroke-width="1"/>
	<text x="721" y="76.8" fill="#000000" font-family="Verdana" font-size="12">nom_tpro</text>
</g>

<!-- Entity ENTREPRISE -->
<g>
	<g>
		<rect x="871" y="101" width="88" height="25" fill="#fdae61" stroke="none" stroke-width="0" opacity="1"/>
		<rect x="871" y="126" width="88" height="59" fill="#fee08b" stroke="none" stroke-width="0" opacity="1"/>
		<rect x="871" y="101" width="88" height="84" fill="none" stroke="#f46d43" stroke-width="2" opacity="1"/>
		<line x1="871" y1="126" x2="959" y2="126" stroke="#f46d43" stroke-width="1"/>
	</g>
	<text x="877" y="118.75" fill="#000000" font-family="Verdana" font-size="12">ENTREPRISE</text>
	<text x="876" y="143.8" fill="#000000" font-family="Verdana" font-size="12">id_entp</text>
	<line x1="876" y1="146" x2="922" y2="146" stroke="#000000" stroke-width="1"/>
	<text x="876" y="160.8" fill="#000000" font-family="Verdana" font-size="12">nom_entp</text>
	<text x="876" y="177.8" fill="#000000" font-family="Verdana" font-size="12">mail</text>
</g>

<!-- Entity SECRETAIRE -->
<g>
	<g>
		<rect x="9" y="193" width="88" height="25" fill="#fdae61" stroke="none" stroke-width="0" opacity="1"/>
		<rect x="9" y="218" width="88" height="77" fill="#fee08b" stroke="none" stroke-width="0" opacity="1"/>
		<rect x="9" y="193" width="88" height="102" fill="none" stroke="#f46d43" stroke-width="2" opacity="1"/>
		<line x1="9" y1="218" x2="97" y2="218" stroke="#f46d43" stroke-width="1"/>
	</g>
	<text x="14" y="210.75" fill="#000000" font-family="Verdana" font-size="12">SECRETAIRE</text>
	<text x="14" y="235.8" fill="#000000" font-family="Verdana" font-size="12">id_sec</text>
	<line x1="14" y1="238" x2="53" y2="238" stroke="#000000" stroke-width="1"/>
	<text x="14" y="252.8" fill="#000000" font-family="Verdana" font-size="12">nom</text>
	<text x="14" y="269.8" fill="#000000" font-family="Verdana" font-size="12">prenom</text>
	<text x="14" y="286.8" fill="#000000" font-family="Verdana" font-size="12">mail</text>
</g>

<!-- Entity PROFESSEUR -->
<g>
	<g>
		<rect x="349" y="202" width="92" height="25" fill="#fdae61" stroke="none" stroke-width="0" opacity="1"/>
		<rect x="349" y="227" width="92" height="59" fill="#fee08b" stroke="none" stroke-width="0" opacity="1"/>
		<rect x="349" y="202" width="92" height="84" fill="none" stroke="#f46d43" stroke-width="2" opacity="1"/>
		<line x1="349" y1="227" x2="441" y2="227" stroke="#f46d43" stroke-width="1"/>
	</g>
	<text x="354" y="219.75" fill="#000000" font-family="Verdana" font-size="12">PROFESSEUR</text>
	<text x="354" y="244.8" fill="#000000" font-family="Verdana" font-size="12">id_prof</text>
	<line x1="354" y1="247" x2="398" y2="247" stroke="#000000" stroke-width="1"/>
	<text x="354" y="261.8" fill="#000000" font-family="Verdana" font-size="12">nom_prof</text>
	<text x="354" y="278.8" fill="#000000" font-family="Verdana" font-size="12">mail</text>
</g>

<!-- Entity APP_STAGIAIRE -->
<g>
	<g>
		<rect x="701" y="193" width="122" height="25" fill="#fdae61" stroke="none" stroke-width="0" opacity="1"/>
		<rect x="701" y="218" width="122" height="77" fill="#fee08b" stroke="none" stroke-width="0" opacity="1"/>
		<rect x="701" y="193" width="122" height="102" fill="none" stroke="#f46d43" stroke-width="2" opacity="1"/>
		<line x1="701" y1="218" x2="823" y2="218" stroke="#f46d43" stroke-width="1"/>
	</g>
	<text x="713" y="210.75" fill="#000000" font-family="Verdana" font-size="12">APP_STAGIAIRE</text>
	<text x="706" y="235.8" fill="#000000" font-family="Verdana" font-size="12">id_app_stag</text>
	<line x1="706" y1="238" x2="781" y2="238" stroke="#000000" stroke-width="1"/>
	<text x="706" y="252.8" fill="#000000" font-family="Verdana" font-size="12">nom_app_stag</text>
	<text x="706" y="269.8" fill="#000000" font-family="Verdana" font-size="12">prenom_app_stag</text>
	<text x="706" y="286.8" fill="#000000" font-family="Verdana" font-size="12">mail</text>
</g>

<!-- Entity RESPFORM -->
<g>
	<g>
		<rect x="145" y="294" width="78" height="25" fill="#fdae61" stroke="none" stroke-width="0" opacity="1"/>
		<rect x="145" y="319" width="78" height="77" fill="#fee08b" stroke="none" stroke-width="0" opacity="1"/>
		<rect x="145" y="294" width="78" height="102" fill="none" stroke="#f46d43" stroke-width="2" opacity="1"/>
		<line x1="145" y1="319" x2="223" y2="319" stroke="#f46d43" stroke-width="1"/>
	</g>
	<text x="151" y="311.75" fill="#000000" font-family="Verdana" font-size="12">RESPFORM</text>
	<text x="150" y="336.8" fill="#000000" font-family="Verdana" font-size="12">id_resp</text>
	<line x1="150" y1="339" x2="195" y2="339" stroke="#000000" stroke-width="1"/>
	<text x="150" y="353.8" fill="#000000" font-family="Verdana" font-size="12">nom</text>
	<text x="150" y="370.8" fill="#000000" font-family="Verdana" font-size="12">prenom</text>
	<text x="150" y="387.8" fill="#000000" font-family="Verdana" font-size="12">mail</text>
</g>

<!-- Entity PROMOTION -->
<g>
	<g>
		<rect x="546" y="311" width="88" height="25" fill="#fdae61" stroke="none" stroke-width="0" opacity="1"/>
		<rect x="546" y="336" width="88" height="43" fill="#fee08b" stroke="none" stroke-width="0" opacity="1"/>
		<rect x="546" y="311" width="88" height="68" fill="none" stroke="#f46d43" stroke-width="2" opacity="1"/>
		<line x1="546" y1="336" x2="634" y2="336" stroke="#f46d43" stroke-width="1"/>
	</g>
	<text x="552" y="328.75" fill="#000000" font-family="Verdana" font-size="12">PROMOTION</text>
	<text x="551" y="353.8" fill="#000000" font-family="Verdana" font-size="12">id_promo</text>
	<line x1="551" y1="356" x2="609" y2="356" stroke="#000000" stroke-width="1"/>
	<text x="551" y="370.8" fill="#000000" font-family="Verdana" font-size="12">nom_promo</text>
</g>
</svg>