<?xml version="1.0" encoding="utf-8"?>
<!-- Generated by Mocodo 4.2.11 -->
<svg width="850" height="566" viewBox="0 0 850 566" xmlns="http://www.w3.org/2000/svg">
<rect x="0" y="0" width="850" height="566" fill="#ffffbf" stroke="none" stroke-width="0"/>

<!-- Association ACCUEIL -->
<g>
	<line x1="360" y1="211" x2="205" y2="85" stroke="#66bd63" stroke-width="2"/>
	<line x1="64" y1="85" x2="205" y2="85" stroke="#66bd63" stroke-width="2"/>
	<g>
		<path d="M225 60 a14 14 90 0 1 14 14 V85 h-68 V74 a14 14 90 0 1 14 -14" fill="#a6d96a" stroke="#a6d96a" stroke-width="0"/>
		<path d="M239 85 v11 a14 14 90 0 1 -14 14 H185 a14 14 90 0 1 -14 -14 V85 H68" fill="#d9ef8b" stroke="#d9ef8b" stroke-width="0"/>
		<rect x="171" y="60" width="68" height="50" fill="none" rx="14" stroke="#66bd63" stroke-width="2"/>
		<line x1="171" y1="85" x2="239" y2="85" stroke="#66bd63" stroke-width="1"/>
		<text x="178" y="77.75" fill="#000000" font-family="Verdana" font-size="12">ACCUEIL</text>
	</g>
	<text x="263" y="165.05" fill="#d73027" font-family="Verdana" font-size="12">0,N</text>
	<text x="113" y="102" fill="#d73027" font-family="Verdana" font-size="12">0,N</text>
</g>

<!-- Association FAIT -->
<g>
	<line x1="360" y1="211" x2="360" y2="85" stroke="#66bd63" stroke-width="2"/>
	<line x1="518" y1="85" x2="360" y2="85" stroke="#66bd63" stroke-width="2"/>
	<g>
		<path d="M368 60 a14 14 90 0 1 14 14 V85 h-44 V74 a14 14 90 0 1 14 -14" fill="#a6d96a" stroke="#a6d96a" stroke-width="0"/>
		<path d="M382 85 v11 a14 14 90 0 1 -14 14 H352 a14 14 90 0 1 -14 -14 V85 H44" fill="#d9ef8b" stroke="#d9ef8b" stroke-width="0"/>
		<rect x="338" y="60" width="44" height="50" fill="none" rx="14" stroke="#66bd63" stroke-width="2"/>
		<line x1="338" y1="85" x2="382" y2="85" stroke="#66bd63" stroke-width="1"/>
		<text x="346" y="77.75" fill="#000000" font-family="Verdana" font-size="12">FAIT</text>
	</g>
	<text x="365" y="127" fill="#d73027" font-family="Verdana" font-size="12">0,N</text>
	<text x="442" y="102" fill="#d73027" font-family="Verdana" font-size="12">0,N</text>
</g>

<!-- Association EST_DANS_PROMO -->
<g>
	<line x1="518" y1="85" x2="676" y2="85" stroke="#66bd63" stroke-width="2"/>
	<line x1="676" y1="211" x2="676" y2="85" stroke="#66bd63" stroke-width="2"/>
	<line x1="808" y1="85" x2="676" y2="85" stroke="#66bd63" stroke-width="2"/>
	<g>
		<path d="M729 60 a14 14 90 0 1 14 14 V85 h-134 V74 a14 14 90 0 1 14 -14" fill="#a6d96a" stroke="#a6d96a" stroke-width="0"/>
		<path d="M743 85 v11 a14 14 90 0 1 -14 14 H623 a14 14 90 0 1 -14 -14 V85 H134" fill="#d9ef8b" stroke="#d9ef8b" stroke-width="0"/>
		<rect x="609" y="60" width="134" height="50" fill="none" rx="14" stroke="#66bd63" stroke-width="2"/>
		<line x1="609" y1="85" x2="743" y2="85" stroke="#66bd63" stroke-width="1"/>
		<text x="617" y="77.75" fill="#000000" font-family="Verdana" font-size="12">EST_DANS_PROMO</text>
	</g>
	<text x="572" y="102" fill="#d73027" font-family="Verdana" font-size="12">0,N</text>
	<text x="681" y="169" fill="#d73027" font-family="Verdana" font-size="12">0,N</text>
	<text x="748" y="102" fill="#d73027" font-family="Verdana" font-size="12">0,N</text>
</g>

<!-- Association APPARTIENT -->
<g>
	<line x1="64" y1="371" x2="64" y2="211" stroke="#66bd63" stroke-width="2"/>
	<line x1="64" y1="85" x2="64" y2="211" stroke="#66bd63" stroke-width="2"/>
	<g>
		<path d="M96 186 a14 14 90 0 1 14 14 V211 h-92 V200 a14 14 90 0 1 14 -14" fill="#a6d96a" stroke="#a6d96a" stroke-width="0"/>
		<path d="M110 211 v11 a14 14 90 0 1 -14 14 H32 a14 14 90 0 1 -14 -14 V211 H92" fill="#d9ef8b" stroke="#d9ef8b" stroke-width="0"/>
		<rect x="18" y="186" width="92" height="50" fill="none" rx="14" stroke="#66bd63" stroke-width="2"/>
		<line x1="18" y1="211" x2="110" y2="211" stroke="#66bd63" stroke-width="1"/>
		<text x="26" y="203.75" fill="#000000" font-family="Verdana" font-size="12">APPARTIENT</text>
	</g>
	<text x="38" y="287" fill="#d73027" font-family="Verdana" font-size="12">1,1</text>
	<text x="69" y="153" fill="#d73027" font-family="Verdana" font-size="12">0,N</text>
</g>

<!-- Association ENCADRE_PRO -->
<g>
	<line x1="64" y1="371" x2="205" y2="211" stroke="#66bd63" stroke-width="2"/>
	<line x1="360" y1="211" x2="205" y2="211" stroke="#66bd63" stroke-width="2"/>
	<g>
		<path d="M244 186 a14 14 90 0 1 14 14 V211 h-106 V200 a14 14 90 0 1 14 -14" fill="#a6d96a" stroke="#a6d96a" stroke-width="0"/>
		<path d="M258 211 v11 a14 14 90 0 1 -14 14 H166 a14 14 90 0 1 -14 -14 V211 H106" fill="#d9ef8b" stroke="#d9ef8b" stroke-width="0"/>
		<rect x="152" y="186" width="106" height="50" fill="none" rx="14" stroke="#66bd63" stroke-width="2"/>
		<line x1="152" y1="211" x2="258" y2="211" stroke="#66bd63" stroke-width="1"/>
		<text x="159" y="203.75" fill="#000000" font-family="Verdana" font-size="12">ENCADRE_PRO</text>
	</g>
	<text x="124" y="319.15" fill="#d73027" font-family="Verdana" font-size="12">0,N</text>
	<text x="264" y="228" fill="#d73027" font-family="Verdana" font-size="12">1,1</text>
</g>

<!-- Association ENCADRE_UNIV -->
<g>
	<line x1="518" y1="371" x2="518" y2="211" stroke="#66bd63" stroke-width="2"/>
	<line x1="360" y1="211" x2="518" y2="211" stroke="#66bd63" stroke-width="2"/>
	<g>
		<path d="M560 186 a14 14 90 0 1 14 14 V211 h-112 V200 a14 14 90 0 1 14 -14" fill="#a6d96a" stroke="#a6d96a" stroke-width="0"/>
		<path d="M574 211 v11 a14 14 90 0 1 -14 14 H476 a14 14 90 0 1 -14 -14 V211 H112" fill="#d9ef8b" stroke="#d9ef8b" stroke-width="0"/>
		<rect x="462" y="186" width="112" height="50" fill="none" rx="14" stroke="#66bd63" stroke-width="2"/>
		<line x1="462" y1="211" x2="574" y2="211" stroke="#66bd63" stroke-width="1"/>
		<text x="469" y="203.75" fill="#000000" font-family="Verdana" font-size="12">ENCADRE_UNIV</text>
	</g>
	<text x="523" y="304" fill="#d73027" font-family="Verdana" font-size="12">0,N</text>
	<text x="435" y="228" fill="#d73027" font-family="Verdana" font-size="12">1,1</text>
</g>

<!-- Association CONCERNE -->
<g>
	<line x1="360" y1="506" x2="360" y2="371" stroke="#66bd63" stroke-width="2"/>
	<line x1="360" y1="211" x2="360" y2="371" stroke="#66bd63" stroke-width="2"/>
	<g>
		<path d="M388 346 a14 14 90 0 1 14 14 V371 h-84 V360 a14 14 90 0 1 14 -14" fill="#a6d96a" stroke="#a6d96a" stroke-width="0"/>
		<path d="M402 371 v11 a14 14 90 0 1 -14 14 H332 a14 14 90 0 1 -14 -14 V371 H84" fill="#d9ef8b" stroke="#d9ef8b" stroke-width="0"/>
		<rect x="318" y="346" width="84" height="50" fill="none" rx="14" stroke="#66bd63" stroke-width="2"/>
		<line x1="318" y1="371" x2="402" y2="371" stroke="#66bd63" stroke-width="1"/>
		<text x="326" y="363.75" fill="#000000" font-family="Verdana" font-size="12">CONCERNE</text>
	</g>
	<text x="365" y="473" fill="#d73027" font-family="Verdana" font-size="12">1,1</text>
	<text x="365" y="304" fill="#d73027" font-family="Verdana" font-size="12">0,N</text>
</g>

<!-- Association EST_RESPONSABLE -->
<g>
	<line x1="676" y1="211" x2="676" y2="371" stroke="#66bd63" stroke-width="2"/>
	<line x1="518" y1="371" x2="676" y2="371" stroke="#66bd63" stroke-width="2"/>
	<g>
		<path d="M730 346 a14 14 90 0 1 14 14 V371 h-136 V360 a14 14 90 0 1 14 -14" fill="#a6d96a" stroke="#a6d96a" stroke-width="0"/>
		<path d="M744 371 v11 a14 14 90 0 1 -14 14 H622 a14 14 90 0 1 -14 -14 V371 H136" fill="#d9ef8b" stroke="#d9ef8b" stroke-width="0"/>
		<rect x="608" y="346" width="136" height="50" fill="none" rx="14" stroke="#66bd63" stroke-width="2"/>
		<line x1="608" y1="371" x2="744" y2="371" stroke="#66bd63" stroke-width="1"/>
		<text x="616" y="363.75" fill="#000000" font-family="Verdana" font-size="12">EST_RESPONSABLE</text>
	</g>
	<text x="681" y="262" fill="#d73027" font-family="Verdana" font-size="12">1,1</text>
	<text x="581" y="388" fill="#d73027" font-family="Verdana" font-size="12">0,N</text>
</g>

<!-- Association DANS -->
<g>
	<line x1="360" y1="506" x2="205" y2="506" stroke="#66bd63" stroke-width="2"/>
	<line x1="205" y1="371" x2="205" y2="506" stroke="#66bd63" stroke-width="2"/>
	<line x1="64" y1="506" x2="205" y2="506" stroke="#66bd63" stroke-width="2"/>
	<g>
		<path d="M216 481 a14 14 90 0 1 14 14 V506 h-50 V495 a14 14 90 0 1 14 -14" fill="#a6d96a" stroke="#a6d96a" stroke-width="0"/>
		<path d="M230 506 v11 a14 14 90 0 1 -14 14 H194 a14 14 90 0 1 -14 -14 V506 H50" fill="#d9ef8b" stroke="#d9ef8b" stroke-width="0"/>
		<rect x="180" y="481" width="50" height="50" fill="none" rx="14" stroke="#66bd63" stroke-width="2"/>
		<line x1="180" y1="506" x2="230" y2="506" stroke="#66bd63" stroke-width="1"/>
		<text x="187" y="498.75" fill="#000000" font-family="Verdana" font-size="12">DANS</text>
	</g>
	<text x="286" y="523" fill="#d73027" font-family="Verdana" font-size="12">1,1</text>
	<text x="210" y="430" fill="#d73027" font-family="Verdana" font-size="12">0,N</text>
	<text x="105" y="523" fill="#d73027" font-family="Verdana" font-size="12">0,N</text>
</g>

<!-- Association EST_CANDIDE -->
<g>
	<line x1="360" y1="506" x2="518" y2="506" stroke="#66bd63" stroke-width="2"/>
	<line x1="518" y1="371" x2="518" y2="506" stroke="#66bd63" stroke-width="2"/>
	<g>
		<path d="M556 481 a14 14 90 0 1 14 14 V506 h-104 V495 a14 14 90 0 1 14 -14" fill="#a6d96a" stroke="#a6d96a" stroke-width="0"/>
		<path d="M570 506 v11 a14 14 90 0 1 -14 14 H480 a14 14 90 0 1 -14 -14 V506 H104" fill="#d9ef8b" stroke="#d9ef8b" stroke-width="0"/>
		<rect x="466" y="481" width="104" height="50" fill="none" rx="14" stroke="#66bd63" stroke-width="2"/>
		<line x1="466" y1="506" x2="570" y2="506" stroke="#66bd63" stroke-width="1"/>
		<text x="474" y="498.75" fill="#000000" font-family="Verdana" font-size="12">EST_CANDIDE</text>
	</g>
	<text x="413" y="523" fill="#d73027" font-family="Verdana" font-size="12">1,1</text>
	<text x="523" y="447" fill="#d73027" font-family="Verdana" font-size="12">0,N</text>
</g>

<!-- Entity ENTREPRISE -->
<g>
	<g>
		<rect x="20" y="34" width="88" height="25" fill="#fdae61" stroke="none" stroke-width="0" opacity="1"/>
		<rect x="20" y="59" width="88" height="77" fill="#fee08b" stroke="none" stroke-width="0" opacity="1"/>
		<rect x="20" y="34" width="88" height="102" fill="none" stroke="#f46d43" stroke-width="2" opacity="1"/>
		<line x1="20" y1="59" x2="108" y2="59" stroke="#f46d43" stroke-width="1"/>
	</g>
	<text x="26" y="51.75" fill="#000000" font-family="Verdana" font-size="12">ENTREPRISE</text>
	<text x="25" y="76.8" fill="#000000" font-family="Verdana" font-size="12">id_entp</text>
	<line x1="25" y1="79" x2="71" y2="79" stroke="#000000" stroke-width="1"/>
	<text x="25" y="93.8" fill="#000000" font-family="Verdana" font-size="12">nom_entp</text>
	<text x="25" y="110.8" fill="#000000" font-family="Verdana" font-size="12">cp_entp</text>
	<text x="25" y="127.8" fill="#000000" font-family="Verdana" font-size="12">ville_entp</text>
</g>

<!-- Entity ELEVE -->
<g>
	<g>
		<rect x="469" y="9" width="98" height="25" fill="#fdae61" stroke="none" stroke-width="0" opacity="1"/>
		<rect x="469" y="34" width="98" height="127" fill="#fee08b" stroke="none" stroke-width="0" opacity="1"/>
		<rect x="469" y="9" width="98" height="152" fill="none" stroke="#f46d43" stroke-width="2" opacity="1"/>
		<line x1="469" y1="34" x2="567" y2="34" stroke="#f46d43" stroke-width="1"/>
	</g>
	<text x="499" y="26.75" fill="#000000" font-family="Verdana" font-size="12">ELEVE</text>
	<text x="474" y="51.8" fill="#000000" font-family="Verdana" font-size="12">id_eleve</text>
	<line x1="474" y1="54" x2="525" y2="54" stroke="#000000" stroke-width="1"/>
	<text x="474" y="68.8" fill="#000000" font-family="Verdana" font-size="12">num_etu</text>
	<text x="474" y="85.8" fill="#000000" font-family="Verdana" font-size="12">mail_univ</text>
	<text x="474" y="102.8" fill="#000000" font-family="Verdana" font-size="12">civilite_eleve</text>
	<text x="474" y="119.8" fill="#000000" font-family="Verdana" font-size="12">nom_eleve</text>
	<text x="474" y="136.8" fill="#000000" font-family="Verdana" font-size="12">prenom_eleve</text>
	<text x="474" y="153.8" fill="#000000" font-family="Verdana" font-size="12">ine</text>
</g>

<!-- Entity ANNEE -->
<g>
	<g>
		<rect x="775" y="51" width="66" height="25" fill="#fdae61" stroke="none" stroke-width="0" opacity="1"/>
		<rect x="775" y="76" width="66" height="43" fill="#fee08b" stroke="none" stroke-width="0" opacity="1"/>
		<rect x="775" y="51" width="66" height="68" fill="none" stroke="#f46d43" stroke-width="2" opacity="1"/>
		<line x1="775" y1="76" x2="841" y2="76" stroke="#f46d43" stroke-width="1"/>
	</g>
	<text x="787" y="68.75" fill="#000000" font-family="Verdana" font-size="12">ANNEE</text>
	<text x="780" y="93.8" fill="#000000" font-family="Verdana" font-size="12">id_annee</text>
	<line x1="780" y1="96" x2="836" y2="96" stroke="#000000" stroke-width="1"/>
	<text x="780" y="110.8" fill="#000000" font-family="Verdana" font-size="12">annee</text>
</g>

<!-- Entity STAGE_ALTERNANCE -->
<g>
	<g>
		<rect x="290" y="135" width="140" height="25" fill="#fdae61" stroke="none" stroke-width="0" opacity="1"/>
		<rect x="290" y="160" width="140" height="127" fill="#fee08b" stroke="none" stroke-width="0" opacity="1"/>
		<rect x="290" y="135" width="140" height="152" fill="none" stroke="#f46d43" stroke-width="2" opacity="1"/>
		<line x1="290" y1="160" x2="430" y2="160" stroke="#f46d43" stroke-width="1"/>
	</g>
	<text x="295" y="152.75" fill="#000000" font-family="Verdana" font-size="12">STAGE_ALTERNANCE</text>
	<text x="295" y="177.8" fill="#000000" font-family="Verdana" font-size="12">id_stg_alt</text>
	<line x1="295" y1="180" x2="356" y2="180" stroke="#000000" stroke-width="1"/>
	<text x="295" y="194.8" fill="#000000" font-family="Verdana" font-size="12">titre_stg_alt</text>
	<text x="295" y="211.8" fill="#000000" font-family="Verdana" font-size="12">theme_stg_alt</text>
	<text x="295" y="228.8" fill="#000000" font-family="Verdana" font-size="12">intitule_env_stg_alt</text>
	<text x="295" y="245.8" fill="#000000" font-family="Verdana" font-size="12">dtdeb_stg_alt</text>
	<text x="295" y="262.8" fill="#000000" font-family="Verdana" font-size="12">dtfin_stg_alt</text>
	<text x="295" y="279.8" fill="#000000" font-family="Verdana" font-size="12">duree</text>
</g>

<!-- Entity PROMOTION -->
<g>
	<g>
		<rect x="632" y="177" width="88" height="25" fill="#fdae61" stroke="none" stroke-width="0" opacity="1"/>
		<rect x="632" y="202" width="88" height="43" fill="#fee08b" stroke="none" stroke-width="0" opacity="1"/>
		<rect x="632" y="177" width="88" height="68" fill="none" stroke="#f46d43" stroke-width="2" opacity="1"/>
		<line x1="632" y1="202" x2="720" y2="202" stroke="#f46d43" stroke-width="1"/>
	</g>
	<text x="638" y="194.75" fill="#000000" font-family="Verdana" font-size="12">PROMOTION</text>
	<text x="637" y="219.8" fill="#000000" font-family="Verdana" font-size="12">id_promo</text>
	<line x1="637" y1="222" x2="695" y2="222" stroke="#000000" stroke-width="1"/>
	<text x="637" y="236.8" fill="#000000" font-family="Verdana" font-size="12">nom_promo</text>
</g>

<!-- Entity TUTEUR_PRO -->
<g>
	<g>
		<rect x="9" y="295" width="110" height="25" fill="#fdae61" stroke="none" stroke-width="0" opacity="1"/>
		<rect x="9" y="320" width="110" height="127" fill="#fee08b" stroke="none" stroke-width="0" opacity="1"/>
		<rect x="9" y="295" width="110" height="152" fill="none" stroke="#f46d43" stroke-width="2" opacity="1"/>
		<line x1="9" y1="320" x2="119" y2="320" stroke="#f46d43" stroke-width="1"/>
	</g>
	<text x="23" y="312.75" fill="#000000" font-family="Verdana" font-size="12">TUTEUR_PRO</text>
	<text x="14" y="337.8" fill="#000000" font-family="Verdana" font-size="12">id_tut_pro</text>
	<line x1="14" y1="340" x2="78" y2="340" stroke="#000000" stroke-width="1"/>
	<text x="14" y="354.8" fill="#000000" font-family="Verdana" font-size="12">civilite_tut_pro</text>
	<text x="14" y="371.8" fill="#000000" font-family="Verdana" font-size="12">nom_tut_pro</text>
	<text x="14" y="388.8" fill="#000000" font-family="Verdana" font-size="12">prenom_tut_pro</text>
	<text x="14" y="405.8" fill="#000000" font-family="Verdana" font-size="12">tel_tut_pro</text>
	<text x="14" y="422.8" fill="#000000" font-family="Verdana" font-size="12">gsm_tut_pro</text>
	<text x="14" y="439.8" fill="#000000" font-family="Verdana" font-size="12">mail_tut_pro</text>
</g>

<!-- Entity DATE_HORAIRE -->
<g>
	<g>
		<rect x="151" y="329" width="108" height="25" fill="#fdae61" stroke="none" stroke-width="0" opacity="1"/>
		<rect x="151" y="354" width="108" height="59" fill="#fee08b" stroke="none" stroke-width="0" opacity="1"/>
		<rect x="151" y="329" width="108" height="84" fill="none" stroke="#f46d43" stroke-width="2" opacity="1"/>
		<line x1="151" y1="354" x2="259" y2="354" stroke="#f46d43" stroke-width="1"/>
	</g>
	<text x="157" y="346.75" fill="#000000" font-family="Verdana" font-size="12">DATE_HORAIRE</text>
	<text x="156" y="371.8" fill="#000000" font-family="Verdana" font-size="12">id_dt_hr</text>
	<line x1="156" y1="374" x2="208" y2="374" stroke="#000000" stroke-width="1"/>
	<text x="156" y="388.8" fill="#000000" font-family="Verdana" font-size="12">date</text>
	<text x="156" y="405.8" fill="#000000" font-family="Verdana" font-size="12">heure</text>
</g>

<!-- Entity PROFESSEUR -->
<g>
	<g>
		<rect x="460" y="312" width="116" height="25" fill="#fdae61" stroke="none" stroke-width="0" opacity="1"/>
		<rect x="460" y="337" width="116" height="93" fill="#fee08b" stroke="none" stroke-width="0" opacity="1"/>
		<rect x="460" y="312" width="116" height="118" fill="none" stroke="#f46d43" stroke-width="2" opacity="1"/>
		<line x1="460" y1="337" x2="576" y2="337" stroke="#f46d43" stroke-width="1"/>
	</g>
	<text x="477" y="329.75" fill="#000000" font-family="Verdana" font-size="12">PROFESSEUR</text>
	<text x="465" y="354.8" fill="#000000" font-family="Verdana" font-size="12">id_tut_univ</text>
	<line x1="465" y1="357" x2="535" y2="357" stroke="#000000" stroke-width="1"/>
	<text x="465" y="371.8" fill="#000000" font-family="Verdana" font-size="12">civilite_tut_univ</text>
	<text x="465" y="388.8" fill="#000000" font-family="Verdana" font-size="12">nom_tut_univ</text>
	<text x="465" y="405.8" fill="#000000" font-family="Verdana" font-size="12">prenom_tut_univ</text>
	<text x="465" y="422.8" fill="#000000" font-family="Verdana" font-size="12">mail_tut_univ</text>
</g>

<!-- Entity SALLE -->
<g>
	<g>
		<rect x="28" y="472" width="72" height="25" fill="#fdae61" stroke="none" stroke-width="0" opacity="1"/>
		<rect x="28" y="497" width="72" height="43" fill="#fee08b" stroke="none" stroke-width="0" opacity="1"/>
		<rect x="28" y="472" width="72" height="68" fill="none" stroke="#f46d43" stroke-width="2" opacity="1"/>
		<line x1="28" y1="497" x2="100" y2="497" stroke="#f46d43" stroke-width="1"/>
	</g>
	<text x="45" y="489.75" fill="#000000" font-family="Verdana" font-size="12">SALLE</text>
	<text x="33" y="514.8" fill="#000000" font-family="Verdana" font-size="12">id_salle</text>
	<line x1="33" y1="517" x2="80" y2="517" stroke="#000000" stroke-width="1"/>
	<text x="33" y="531.8" fill="#000000" font-family="Verdana" font-size="12">nom_salle</text>
</g>

<!-- Entity SOUTENANCE -->
<g>
	<g>
		<rect x="312" y="481" width="96" height="25" fill="#fdae61" stroke="none" stroke-width="0" opacity="1"/>
		<rect x="312" y="506" width="96" height="25" fill="#fee08b" stroke="none" stroke-width="0" opacity="1"/>
		<rect x="312" y="481" width="96" height="50" fill="none" stroke="#f46d43" stroke-width="2" opacity="1"/>
		<line x1="312" y1="506" x2="408" y2="506" stroke="#f46d43" stroke-width="1"/>
	</g>
	<text x="318" y="498.75" fill="#000000" font-family="Verdana" font-size="12">SOUTENANCE</text>
	<text x="317" y="523.8" fill="#000000" font-family="Verdana" font-size="12">id_sout</text>
	<line x1="317" y1="526" x2="362" y2="526" stroke="#000000" stroke-width="1"/>
</g>

<!-- Entity SECRETAIRE -->
<g>
	<g>
		<rect x="632" y="455" width="88" height="25" fill="#fdae61" stroke="none" stroke-width="0" opacity="1"/>
		<rect x="632" y="480" width="88" height="77" fill="#fee08b" stroke="none" stroke-width="0" opacity="1"/>
		<rect x="632" y="455" width="88" height="102" fill="none" stroke="#f46d43" stroke-width="2" opacity="1"/>
		<line x1="632" y1="480" x2="720" y2="480" stroke="#f46d43" stroke-width="1"/>
	</g>
	<text x="637" y="472.75" fill="#000000" font-family="Verdana" font-size="12">SECRETAIRE</text>
	<text x="637" y="497.8" fill="#000000" font-family="Verdana" font-size="12">id_sec</text>
	<line x1="637" y1="500" x2="676" y2="500" stroke="#000000" stroke-width="1"/>
	<text x="637" y="514.8" fill="#000000" font-family="Verdana" font-size="12">nom</text>
	<text x="637" y="531.8" fill="#000000" font-family="Verdana" font-size="12">prenom</text>
	<text x="637" y="548.8" fill="#000000" font-family="Verdana" font-size="12">mail</text>
</g>
</svg>