<?xml version="1.0" encoding="utf-8"?>
<!-- Generated by Mocodo 4.2.11 -->
<svg width="948" height="397" viewBox="0 0 948 397" xmlns="http://www.w3.org/2000/svg">
<rect x="0" y="0" width="948" height="397" fill="#ffffbf" stroke="none" stroke-width="0"/>

<!-- Association EST_RESPONSABLE -->
<g>
	<line x1="273" y1="60" x2="101" y2="60" stroke="#66bd63" stroke-width="2"/>
	<line x1="101" y1="161" x2="101" y2="60" stroke="#66bd63" stroke-width="2"/>
	<g>
		<path d="M155 35 a14 14 90 0 1 14 14 V60 h-136 V49 a14 14 90 0 1 14 -14" fill="#a6d96a" stroke="#a6d96a" stroke-width="0"/>
		<path d="M169 60 v11 a14 14 90 0 1 -14 14 H47 a14 14 90 0 1 -14 -14 V60 H136" fill="#d9ef8b" stroke="#d9ef8b" stroke-width="0"/>
		<rect x="33" y="35" width="136" height="50" fill="none" rx="14" stroke="#66bd63" stroke-width="2"/>
		<line x1="33" y1="60" x2="169" y2="60" stroke="#66bd63" stroke-width="1"/>
		<text x="41" y="52.75" fill="#000000" font-family="Verdana" font-size="12">EST_RESPONSABLE</text>
	</g>
	<text x="203" y="77" fill="#d73027" font-family="Verdana" font-size="12">1,1</text>
	<text x="106" y="111" fill="#d73027" font-family="Verdana" font-size="12">1,1</text>
</g>

<!-- Association EST_DANS_PROMO -->
<g>
	<line x1="738" y1="161" x2="452" y2="60" stroke="#66bd63" stroke-width="2"/>
	<line x1="273" y1="60" x2="452" y2="60" stroke="#66bd63" stroke-width="2"/>
	<line x1="614" y1="60" x2="452" y2="60" stroke="#66bd63" stroke-width="2"/>
	<g>
		<path d="M505 35 a14 14 90 0 1 14 14 V60 h-134 V49 a14 14 90 0 1 14 -14" fill="#a6d96a" stroke="#a6d96a" stroke-width="0"/>
		<path d="M519 60 v11 a14 14 90 0 1 -14 14 H399 a14 14 90 0 1 -14 -14 V60 H134" fill="#d9ef8b" stroke="#d9ef8b" stroke-width="0"/>
		<rect x="385" y="35" width="134" height="50" fill="none" rx="14" stroke="#66bd63" stroke-width="2"/>
		<line x1="385" y1="60" x2="519" y2="60" stroke="#66bd63" stroke-width="1"/>
		<text x="393" y="52.75" fill="#000000" font-family="Verdana" font-size="12">EST_DANS_PROMO</text>
	</g>
	<text x="663" y="157.94" fill="#d73027" font-family="Verdana" font-size="12">1,1</text>
	<text x="322" y="77" fill="#d73027" font-family="Verdana" font-size="12">0,N</text>
	<text x="554" y="77" fill="#d73027" font-family="Verdana" font-size="12">0,N</text>
</g>

<!-- Association SUIT -->
<g>
	<line x1="101" y1="161" x2="273" y2="161" stroke="#66bd63" stroke-width="2"/>
	<line x1="452" y1="161" x2="273" y2="161" stroke="#66bd63" stroke-width="2"/>
	<g>
		<path d="M281 136 a14 14 90 0 1 14 14 V161 h-44 V150 a14 14 90 0 1 14 -14" fill="#a6d96a" stroke="#a6d96a" stroke-width="0"/>
		<path d="M295 161 v11 a14 14 90 0 1 -14 14 H265 a14 14 90 0 1 -14 -14 V161 H44" fill="#d9ef8b" stroke="#d9ef8b" stroke-width="0"/>
		<rect x="251" y="136" width="44" height="50" fill="none" rx="14" stroke="#66bd63" stroke-width="2"/>
		<line x1="251" y1="161" x2="295" y2="161" stroke="#66bd63" stroke-width="1"/>
		<text x="258" y="153.75" fill="#000000" font-family="Verdana" font-size="12">SUIT</text>
	</g>
	<text x="152" y="178" fill="#d73027" font-family="Verdana" font-size="12">0,N</text>
	<text x="356" y="178" fill="#d73027" font-family="Verdana" font-size="12">1,1</text>
</g>

<!-- Association ACCUEIL -->
<g>
	<line x1="879" y1="262" x2="614" y2="161" stroke="#66bd63" stroke-width="2"/>
	<line x1="452" y1="161" x2="614" y2="161" stroke="#66bd63" stroke-width="2"/>
	<g>
		<path d="M634 136 a14 14 90 0 1 14 14 V161 h-68 V150 a14 14 90 0 1 14 -14" fill="#a6d96a" stroke="#a6d96a" stroke-width="0"/>
		<path d="M648 161 v11 a14 14 90 0 1 -14 14 H594 a14 14 90 0 1 -14 -14 V161 H68" fill="#d9ef8b" stroke="#d9ef8b" stroke-width="0"/>
		<rect x="580" y="136" width="68" height="50" fill="none" rx="14" stroke="#66bd63" stroke-width="2"/>
		<line x1="580" y1="161" x2="648" y2="161" stroke="#66bd63" stroke-width="1"/>
		<text x="587" y="153.75" fill="#000000" font-family="Verdana" font-size="12">ACCUEIL</text>
	</g>
	<text x="808" y="259.25" fill="#d73027" font-family="Verdana" font-size="12">0,N</text>
	<text x="527" y="153" fill="#d73027" font-family="Verdana" font-size="12">1,1</text>
</g>

<!-- Association EST_DANS_ENTP -->
<g>
	<line x1="738" y1="161" x2="879" y2="161" stroke="#66bd63" stroke-width="2"/>
	<line x1="879" y1="262" x2="879" y2="161" stroke="#66bd63" stroke-width="2"/>
	<g>
		<path d="M925 136 a14 14 90 0 1 14 14 V161 h-120 V150 a14 14 90 0 1 14 -14" fill="#a6d96a" stroke="#a6d96a" stroke-width="0"/>
		<path d="M939 161 v11 a14 14 90 0 1 -14 14 H833 a14 14 90 0 1 -14 -14 V161 H120" fill="#d9ef8b" stroke="#d9ef8b" stroke-width="0"/>
		<rect x="819" y="136" width="120" height="50" fill="none" rx="14" stroke="#66bd63" stroke-width="2"/>
		<line x1="819" y1="161" x2="939" y2="161" stroke="#66bd63" stroke-width="1"/>
		<text x="827" y="153.75" fill="#000000" font-family="Verdana" font-size="12">EST_DANS_ENTP</text>
	</g>
	<text x="792" y="178" fill="#d73027" font-family="Verdana" font-size="12">1,1</text>
	<text x="884" y="212" fill="#d73027" font-family="Verdana" font-size="12">1,N</text>
</g>

<!-- Association PROF_CANDIDE_PARTICIPE -->
<g>
	<line x1="101" y1="161" x2="101" y2="262" stroke="#66bd63" stroke-width="2"/>
	<line x1="273" y1="262" x2="101" y2="262" stroke="#66bd63" stroke-width="2"/>
	<g>
		<path d="M179 237 a14 14 90 0 1 14 14 V262 h-184 V251 a14 14 90 0 1 14 -14" fill="#a6d96a" stroke="#a6d96a" stroke-width="0"/>
		<path d="M193 262 v11 a14 14 90 0 1 -14 14 H23 a14 14 90 0 1 -14 -14 V262 H184" fill="#d9ef8b" stroke="#d9ef8b" stroke-width="0"/>
		<rect x="9" y="237" width="184" height="50" fill="none" rx="14" stroke="#66bd63" stroke-width="2"/>
		<line x1="9" y1="262" x2="193" y2="262" stroke="#66bd63" stroke-width="1"/>
		<text x="17" y="254.75" fill="#000000" font-family="Verdana" font-size="12">PROF_CANDIDE_PARTICIPE</text>
	</g>
	<text x="106" y="220" fill="#d73027" font-family="Verdana" font-size="12">0,N</text>
	<text x="199" y="279" fill="#d73027" font-family="Verdana" font-size="12">1,1</text>
</g>

<!-- Association EST_SOUTENANCE -->
<g>
	<line x1="452" y1="161" x2="452" y2="262" stroke="#66bd63" stroke-width="2"/>
	<line x1="273" y1="262" x2="452" y2="262" stroke="#66bd63" stroke-width="2"/>
	<g>
		<path d="M503 237 a14 14 90 0 1 14 14 V262 h-130 V251 a14 14 90 0 1 14 -14" fill="#a6d96a" stroke="#a6d96a" stroke-width="0"/>
		<path d="M517 262 v11 a14 14 90 0 1 -14 14 H401 a14 14 90 0 1 -14 -14 V262 H130" fill="#d9ef8b" stroke="#d9ef8b" stroke-width="0"/>
		<rect x="387" y="237" width="130" height="50" fill="none" rx="14" stroke="#66bd63" stroke-width="2"/>
		<line x1="387" y1="262" x2="517" y2="262" stroke="#66bd63" stroke-width="1"/>
		<text x="395" y="254.75" fill="#000000" font-family="Verdana" font-size="12">EST_SOUTENANCE</text>
	</g>
	<text x="425" y="220" fill="#d73027" font-family="Verdana" font-size="12">0,N</text>
	<text x="326" y="254" fill="#d73027" font-family="Verdana" font-size="12">1,1</text>
</g>

<!-- Association FAIT -->
<g>
	<line x1="738" y1="161" x2="614" y2="262" stroke="#66bd63" stroke-width="2"/>
	<line x1="452" y1="161" x2="614" y2="262" stroke="#66bd63" stroke-width="2"/>
	<g>
		<path d="M622 237 a14 14 90 0 1 14 14 V262 h-44 V251 a14 14 90 0 1 14 -14" fill="#a6d96a" stroke="#a6d96a" stroke-width="0"/>
		<path d="M636 262 v11 a14 14 90 0 1 -14 14 H606 a14 14 90 0 1 -14 -14 V262 H44" fill="#d9ef8b" stroke="#d9ef8b" stroke-width="0"/>
		<rect x="592" y="237" width="44" height="50" fill="none" rx="14" stroke="#66bd63" stroke-width="2"/>
		<line x1="592" y1="262" x2="636" y2="262" stroke="#66bd63" stroke-width="1"/>
		<text x="600" y="254.75" fill="#000000" font-family="Verdana" font-size="12">FAIT</text>
	</g>
	<text x="662" y="198.97" fill="#d73027" font-family="Verdana" font-size="12">0,N</text>
	<text x="498.18" y="220" fill="#d73027" font-family="Verdana" font-size="12">1,1</text>
</g>

<!-- Association EST_TUTEUR_PRO -->
<g>
	<line x1="738" y1="161" x2="738" y2="262" stroke="#66bd63" stroke-width="2"/>
	<line x1="614" y1="354" x2="738" y2="262" stroke="#66bd63" stroke-width="2"/>
	<g>
		<path d="M788 237 a14 14 90 0 1 14 14 V262 h-128 V251 a14 14 90 0 1 14 -14" fill="#a6d96a" stroke="#a6d96a" stroke-width="0"/>
		<path d="M802 262 v11 a14 14 90 0 1 -14 14 H688 a14 14 90 0 1 -14 -14 V262 H128" fill="#d9ef8b" stroke="#d9ef8b" stroke-width="0"/>
		<rect x="674" y="237" width="128" height="50" fill="none" rx="14" stroke="#66bd63" stroke-width="2"/>
		<line x1="674" y1="262" x2="802" y2="262" stroke="#66bd63" stroke-width="1"/>
		<text x="682" y="254.75" fill="#000000" font-family="Verdana" font-size="12">EST_TUTEUR_PRO</text>
	</g>
	<text x="743" y="229" fill="#d73027" font-family="Verdana" font-size="12">1,1</text>
	<text x="638.43" y="312" fill="#d73027" font-family="Verdana" font-size="12">1,N</text>
</g>

<!-- Association EST_DANS_SALLE -->
<g>
	<line x1="273" y1="262" x2="273" y2="354" stroke="#66bd63" stroke-width="2"/>
	<line x1="101" y1="354" x2="273" y2="354" stroke="#66bd63" stroke-width="2"/>
	<g>
		<path d="M322 329 a14 14 90 0 1 14 14 V354 h-126 V343 a14 14 90 0 1 14 -14" fill="#a6d96a" stroke="#a6d96a" stroke-width="0"/>
		<path d="M336 354 v11 a14 14 90 0 1 -14 14 H224 a14 14 90 0 1 -14 -14 V354 H126" fill="#d9ef8b" stroke="#d9ef8b" stroke-width="0"/>
		<rect x="210" y="329" width="126" height="50" fill="none" rx="14" stroke="#66bd63" stroke-width="2"/>
		<line x1="210" y1="354" x2="336" y2="354" stroke="#66bd63" stroke-width="1"/>
		<text x="217" y="346.75" fill="#000000" font-family="Verdana" font-size="12">EST_DANS_SALLE</text>
	</g>
	<text x="247" y="321" fill="#d73027" font-family="Verdana" font-size="12">1,1</text>
	<text x="142" y="371" fill="#d73027" font-family="Verdana" font-size="12">0,N</text>
</g>

<!-- Association TUTEUR_PRO_PARTICIPE -->
<g>
	<line x1="614" y1="354" x2="452" y2="354" stroke="#66bd63" stroke-width="2"/>
	<line x1="273" y1="262" x2="452" y2="354" stroke="#66bd63" stroke-width="2"/>
	<g>
		<path d="M522 329 a14 14 90 0 1 14 14 V354 h-168 V343 a14 14 90 0 1 14 -14" fill="#a6d96a" stroke="#a6d96a" stroke-width="0"/>
		<path d="M536 354 v11 a14 14 90 0 1 -14 14 H382 a14 14 90 0 1 -14 -14 V354 H168" fill="#d9ef8b" stroke="#d9ef8b" stroke-width="0"/>
		<rect x="368" y="329" width="168" height="50" fill="none" rx="14" stroke="#66bd63" stroke-width="2"/>
		<line x1="368" y1="354" x2="536" y2="354" stroke="#66bd63" stroke-width="1"/>
		<text x="375" y="346.75" fill="#000000" font-family="Verdana" font-size="12">TUTEUR_PRO_PARTICIPE</text>
	</g>
	<text x="541" y="371" fill="#d73027" font-family="Verdana" font-size="12">0,N</text>
	<text x="326" y="282.68" fill="#d73027" font-family="Verdana" font-size="12">1,1</text>
</g>

<!-- Association APPARTIENT -->
<g>
	<line x1="614" y1="354" x2="738" y2="354" stroke="#66bd63" stroke-width="2"/>
	<line x1="879" y1="262" x2="738" y2="354" stroke="#66bd63" stroke-width="2"/>
	<g>
		<path d="M770 329 a14 14 90 0 1 14 14 V354 h-92 V343 a14 14 90 0 1 14 -14" fill="#a6d96a" stroke="#a6d96a" stroke-width="0"/>
		<path d="M784 354 v11 a14 14 90 0 1 -14 14 H706 a14 14 90 0 1 -14 -14 V354 H92" fill="#d9ef8b" stroke="#d9ef8b" stroke-width="0"/>
		<rect x="692" y="329" width="92" height="50" fill="none" rx="14" stroke="#66bd63" stroke-width="2"/>
		<line x1="692" y1="354" x2="784" y2="354" stroke="#66bd63" stroke-width="1"/>
		<text x="700" y="346.75" fill="#000000" font-family="Verdana" font-size="12">APPARTIENT</text>
	</g>
	<text x="665" y="371" fill="#d73027" font-family="Verdana" font-size="12">1,1</text>
	<text x="808" y="287.72" fill="#d73027" font-family="Verdana" font-size="12">1,N</text>
</g>

<!-- Entity PROMOTION -->
<g>
	<g>
		<rect x="229" y="26" width="88" height="25" fill="#fdae61" stroke="none" stroke-width="0" opacity="1"/>
		<rect x="229" y="51" width="88" height="43" fill="#fee08b" stroke="none" stroke-width="0" opacity="1"/>
		<rect x="229" y="26" width="88" height="68" fill="none" stroke="#f46d43" stroke-width="2" opacity="1"/>
		<line x1="229" y1="51" x2="317" y2="51" stroke="#f46d43" stroke-width="1"/>
	</g>
	<text x="235" y="43.75" fill="#000000" font-family="Verdana" font-size="12">PROMOTION</text>
	<text x="234" y="68.8" fill="#000000" font-family="Verdana" font-size="12">id_promo</text>
	<line x1="234" y1="71" x2="292" y2="71" stroke="#000000" stroke-width="1"/>
	<text x="234" y="85.8" fill="#000000" font-family="Verdana" font-size="12">nom_promo</text>
</g>

<!-- Entity ANNEE -->
<g>
	<g>
		<rect x="581" y="26" width="66" height="25" fill="#fdae61" stroke="none" stroke-width="0" opacity="1"/>
		<rect x="581" y="51" width="66" height="43" fill="#fee08b" stroke="none" stroke-width="0" opacity="1"/>
		<rect x="581" y="26" width="66" height="68" fill="none" stroke="#f46d43" stroke-width="2" opacity="1"/>
		<line x1="581" y1="51" x2="647" y2="51" stroke="#f46d43" stroke-width="1"/>
	</g>
	<text x="593" y="43.75" fill="#000000" font-family="Verdana" font-size="12">ANNEE</text>
	<text x="586" y="68.8" fill="#000000" font-family="Verdana" font-size="12">id_annee</text>
	<line x1="586" y1="71" x2="642" y2="71" stroke="#000000" stroke-width="1"/>
	<text x="586" y="85.8" fill="#000000" font-family="Verdana" font-size="12">annee</text>
</g>

<!-- Entity SECRETAIRE -->
<g>
	<g>
		<rect x="835" y="9" width="88" height="25" fill="#fdae61" stroke="none" stroke-width="0" opacity="1"/>
		<rect x="835" y="34" width="88" height="77" fill="#fee08b" stroke="none" stroke-width="0" opacity="1"/>
		<rect x="835" y="9" width="88" height="102" fill="none" stroke="#f46d43" stroke-width="2" opacity="1"/>
		<line x1="835" y1="34" x2="923" y2="34" stroke="#f46d43" stroke-width="1"/>
	</g>
	<text x="840" y="26.75" fill="#000000" font-family="Verdana" font-size="12">SECRETAIRE</text>
	<text x="840" y="51.8" fill="#000000" font-family="Verdana" font-size="12">id_sec</text>
	<line x1="840" y1="54" x2="879" y2="54" stroke="#000000" stroke-width="1"/>
	<text x="840" y="68.8" fill="#000000" font-family="Verdana" font-size="12">nom</text>
	<text x="840" y="85.8" fill="#000000" font-family="Verdana" font-size="12">prenom</text>
	<text x="840" y="102.8" fill="#000000" font-family="Verdana" font-size="12">mail</text>
</g>

<!-- Entity PROFESSEUR -->
<g>
	<g>
		<rect x="55" y="119" width="92" height="25" fill="#fdae61" stroke="none" stroke-width="0" opacity="1"/>
		<rect x="55" y="144" width="92" height="59" fill="#fee08b" stroke="none" stroke-width="0" opacity="1"/>
		<rect x="55" y="119" width="92" height="84" fill="none" stroke="#f46d43" stroke-width="2" opacity="1"/>
		<line x1="55" y1="144" x2="147" y2="144" stroke="#f46d43" stroke-width="1"/>
	</g>
	<text x="60" y="136.75" fill="#000000" font-family="Verdana" font-size="12">PROFESSEUR</text>
	<text x="60" y="161.8" fill="#000000" font-family="Verdana" font-size="12">id_prof</text>
	<line x1="60" y1="164" x2="104" y2="164" stroke="#000000" stroke-width="1"/>
	<text x="60" y="178.8" fill="#000000" font-family="Verdana" font-size="12">nom_prof</text>
	<text x="60" y="195.8" fill="#000000" font-family="Verdana" font-size="12">mail</text>
</g>

<!-- Entity STAGE_ALTERNANCE -->
<g>
	<g>
		<rect x="382" y="119" width="140" height="25" fill="#fdae61" stroke="none" stroke-width="0" opacity="1"/>
		<rect x="382" y="144" width="140" height="59" fill="#fee08b" stroke="none" stroke-width="0" opacity="1"/>
		<rect x="382" y="119" width="140" height="84" fill="none" stroke="#f46d43" stroke-width="2" opacity="1"/>
		<line x1="382" y1="144" x2="522" y2="144" stroke="#f46d43" stroke-width="1"/>
	</g>
	<text x="387" y="136.75" fill="#000000" font-family="Verdana" font-size="12">STAGE_ALTERNANCE</text>
	<text x="387" y="161.8" fill="#000000" font-family="Verdana" font-size="12">id_stag_alt</text>
	<line x1="387" y1="164" x2="455" y2="164" stroke="#000000" stroke-width="1"/>
	<text x="387" y="178.8" fill="#000000" font-family="Verdana" font-size="12">date_debut</text>
	<text x="387" y="195.8" fill="#000000" font-family="Verdana" font-size="12">date_fin</text>
</g>

<!-- Entity ELEVE -->
<g>
	<g>
		<rect x="689" y="110" width="98" height="25" fill="#fdae61" stroke="none" stroke-width="0" opacity="1"/>
		<rect x="689" y="135" width="98" height="77" fill="#fee08b" stroke="none" stroke-width="0" opacity="1"/>
		<rect x="689" y="110" width="98" height="102" fill="none" stroke="#f46d43" stroke-width="2" opacity="1"/>
		<line x1="689" y1="135" x2="787" y2="135" stroke="#f46d43" stroke-width="1"/>
	</g>
	<text x="719" y="127.75" fill="#000000" font-family="Verdana" font-size="12">ELEVE</text>
	<text x="694" y="152.8" fill="#000000" font-family="Verdana" font-size="12">id_eleve</text>
	<line x1="694" y1="155" x2="745" y2="155" stroke="#000000" stroke-width="1"/>
	<text x="694" y="169.8" fill="#000000" font-family="Verdana" font-size="12">nom_eleve</text>
	<text x="694" y="186.8" fill="#000000" font-family="Verdana" font-size="12">prenom_eleve</text>
	<text x="694" y="203.8" fill="#000000" font-family="Verdana" font-size="12">mail_eleve</text>
</g>

<!-- Entity SOUTENANCE -->
<g>
	<g>
		<rect x="225" y="220" width="96" height="25" fill="#fdae61" stroke="none" stroke-width="0" opacity="1"/>
		<rect x="225" y="245" width="96" height="59" fill="#fee08b" stroke="none" stroke-width="0" opacity="1"/>
		<rect x="225" y="220" width="96" height="84" fill="none" stroke="#f46d43" stroke-width="2" opacity="1"/>
		<line x1="225" y1="245" x2="321" y2="245" stroke="#f46d43" stroke-width="1"/>
	</g>
	<text x="231" y="237.75" fill="#000000" font-family="Verdana" font-size="12">SOUTENANCE</text>
	<text x="230" y="262.8" fill="#000000" font-family="Verdana" font-size="12">id_sout</text>
	<line x1="230" y1="265" x2="275" y2="265" stroke="#000000" stroke-width="1"/>
	<text x="230" y="279.8" fill="#000000" font-family="Verdana" font-size="12">date_sout</text>
	<text x="230" y="296.8" fill="#000000" font-family="Verdana" font-size="12">horaire_sout</text>
</g>

<!-- Entity ENTREPRISE -->
<g>
	<g>
		<rect x="835" y="220" width="88" height="25" fill="#fdae61" stroke="none" stroke-width="0" opacity="1"/>
		<rect x="835" y="245" width="88" height="59" fill="#fee08b" stroke="none" stroke-width="0" opacity="1"/>
		<rect x="835" y="220" width="88" height="84" fill="none" stroke="#f46d43" stroke-width="2" opacity="1"/>
		<line x1="835" y1="245" x2="923" y2="245" stroke="#f46d43" stroke-width="1"/>
	</g>
	<text x="841" y="237.75" fill="#000000" font-family="Verdana" font-size="12">ENTREPRISE</text>
	<text x="840" y="262.8" fill="#000000" font-family="Verdana" font-size="12">id_entp</text>
	<line x1="840" y1="265" x2="886" y2="265" stroke="#000000" stroke-width="1"/>
	<text x="840" y="279.8" fill="#000000" font-family="Verdana" font-size="12">nom_entp</text>
	<text x="840" y="296.8" fill="#000000" font-family="Verdana" font-size="12">mail</text>
</g>

<!-- Entity SALLE -->
<g>
	<g>
		<rect x="65" y="320" width="72" height="25" fill="#fdae61" stroke="none" stroke-width="0" opacity="1"/>
		<rect x="65" y="345" width="72" height="43" fill="#fee08b" stroke="none" stroke-width="0" opacity="1"/>
		<rect x="65" y="320" width="72" height="68" fill="none" stroke="#f46d43" stroke-width="2" opacity="1"/>
		<line x1="65" y1="345" x2="137" y2="345" stroke="#f46d43" stroke-width="1"/>
	</g>
	<text x="82" y="337.75" fill="#000000" font-family="Verdana" font-size="12">SALLE</text>
	<text x="70" y="362.8" fill="#000000" font-family="Verdana" font-size="12">id_salle</text>
	<line x1="70" y1="365" x2="117" y2="365" stroke="#000000" stroke-width="1"/>
	<text x="70" y="379.8" fill="#000000" font-family="Verdana" font-size="12">nom_salle</text>
</g>

<!-- Entity TUTEUR_PRO -->
<g>
	<g>
		<rect x="568" y="320" width="92" height="25" fill="#fdae61" stroke="none" stroke-width="0" opacity="1"/>
		<rect x="568" y="345" width="92" height="43" fill="#fee08b" stroke="none" stroke-width="0" opacity="1"/>
		<rect x="568" y="320" width="92" height="68" fill="none" stroke="#f46d43" stroke-width="2" opacity="1"/>
		<line x1="568" y1="345" x2="660" y2="345" stroke="#f46d43" stroke-width="1"/>
	</g>
	<text x="573" y="337.75" fill="#000000" font-family="Verdana" font-size="12">TUTEUR_PRO</text>
	<text x="573" y="362.8" fill="#000000" font-family="Verdana" font-size="12">id_tpro</text>
	<line x1="573" y1="365" x2="617" y2="365" stroke="#000000" stroke-width="1"/>
	<text x="573" y="379.8" fill="#000000" font-family="Verdana" font-size="12">nom_tpro</text>
</g>
</svg>